<svg xmlns="http://www.w3.org/2000/svg" xmlns:xlink="http://www.w3.org/1999/xlink" viewBox="0 0 798.3 755.4"><defs><linearGradient id="a" x1="682.31" y1="94.61" x2="711.65" y2="273.63" gradientUnits="userSpaceOnUse"><stop offset="0" stop-color="#fff"/><stop offset="1"/></linearGradient><linearGradient id="b" x1="714.48" y1="200.14" x2="676.76" y2="221.1" xlink:href="#a"/><linearGradient id="c" x1="692.45" y1="99.15" x2="711.31" y2="154.53" xlink:href="#a"/><linearGradient id="d" x1="693.18" y1="113.24" x2="712.04" y2="159.94" xlink:href="#a"/><linearGradient id="e" x1="938.19" y1="138.06" x2="361.33" y2="181.25" gradientUnits="userSpaceOnUse"><stop offset="0" stop-color="#cce0f4"/><stop offset="0.06" stop-color="#c3dcf2"/><stop offset="0.17" stop-color="#a9d2ee"/><stop offset="0.31" stop-color="#80c2e7"/><stop offset="0.46" stop-color="#47acde"/><stop offset="0.57" stop-color="#1e9cd7"/><stop offset="0.87" stop-color="#0075be"/><stop offset="0.99" stop-color="#005b97"/></linearGradient></defs><title>starship_escapepods00</title><path d="M671.9,267.8l-16.3-29.2c-8.2-14.6-16.5-29.9-17.1-46.6-.1-5.7.6-11.5,3-16.7a24.4,24.4,0,0,1,11.6-12.1c7.3-3.3,16.2-1.8,23.3,2s12.8,9.9,18.2,15.9a459.9,459.9,0,0,1,42,54.3c4.7,7.1,9.2,14.3,14.8,20.8s12.2,12.1,20.1,15.2L671,269.8" transform="translate(-315.2 -0.9)" fill="url(#a)"/><path d="M673,268.8c-9.3-16.7-19.9-33.3-27.3-51-6.3-15.1-10.7-37,2.7-49.7,20.2-19,43.6,10,56.1,24.8a478.1,478.1,0,0,1,34.1,46.2c8.8,13.3,18.7,27,33.8,33.4l-1.9-2.2c-33.6-.6-67.1-1.2-100.6-1.5.6,0,1.4,2,2.2,2,33.5.7,66.9,1.2,100.4,1.7-.3,0-1.4-2-2-2.2-12.7-5.3-21-16-28.4-27.2-5.6-8.5-11.2-17-17.2-25.2-11.3-15.4-23.2-31.4-37.2-44.4-8.9-8.4-21.8-16.3-34.4-11.7-17.8,6.4-17.8,29.4-13.4,44.5,2.9,10,7.9,19.3,12.9,28.4,6,10.7,12.1,21.4,18.1,32.2.4.7,1.9,1.5,2.1,1.9Z" transform="translate(-315.2 -0.9)"/><path d="M667.7,167.7c-2.6,2.3-1.7,6.4-.7,9.8l6,19.1,9.9,31.5c2.1,6.5,4.3,13.3,9.1,18.1s15.4,7.7,24,9c2.6.4,6,.4,6.9-2.1s-.1-3.1-.8-4.5A372,372,0,0,0,670,169.5" transform="translate(-315.2 -0.9)" fill="url(#b)"/><path d="M666.4,166.8c-4,4.9.5,13.5,2.1,18.5,2.7,8.4,5.4,16.9,8,25.3,4,12.4,6.4,27.9,16.7,36.9a34.1,34.1,0,0,0,13.9,6.8c3.5.9,14.1,4.5,16.7.3,1.5-2.5-1.1-6.1-2.2-8.3-2-4-4.1-8-6.2-11.9-4-7.3-8.3-14.5-12.8-21.6a383,383,0,0,0-31.4-42.6c-.6-.6-2.1-1.1-2.4-1.5a369.4,369.4,0,0,1,34.9,47.5c4.7,7.7,9.2,15.5,13.3,23.4,1.5,2.8,6.2,9.3,4.8,12.5s-5.8,2.2-8.3,1.8c-8.9-1.2-19.2-3.4-24.2-11.7s-6.2-16.3-8.7-24.3-5.4-17.1-8-25.7L668.7,180c-1.1-3.9-2.7-8,.2-11.5.1-.1-2.3-1.9-2.5-1.7Z" transform="translate(-315.2 -0.9)"/><path d="M661.3,156.6,706.9,174l12.2-6c12.6-6.3,25.9-13.3,32.9-25.4,2.1-3.7,3.6-7.9,3-12.1-.8-6.1-5.9-11-11.7-13.2s-12.1-2.1-18.3-1.6A162.8,162.8,0,0,0,674.1,128c-4.1,1.7-8.2,3.6-11.4,6.6s-5.8,7.1-5.7,11.6a12.5,12.5,0,0,0,6.8,10.9l.4-1.6" transform="translate(-315.2 -0.9)" fill="url(#c)"/><path d="M662.4,157.4,692.5,169l7.3,2.8c2.1.8,5.1,2.5,7.3,2.8,3.8.4,9.7-4,13.2-5.7,13.6-6.8,32.7-16.2,35.8-32.9,2.5-13.4-12.8-20.8-23.8-21.4-18.8-.9-38.9,4.4-56.1,11.2-8.3,3.3-19.3,7.9-20.4,18.1-.7,6.4,3.5,10.8,8.6,13.7l.7.2.3-1.5c.1-.6-2.5-1.5-2.5-1.6-.3,1.5-3.3-2.2-3.4-2.6a11.4,11.4,0,0,1-1.3-5.1,15.2,15.2,0,0,1,3.7-9.5c4.6-5.6,12-8.3,18.5-10.8,15.6-5.9,32.5-9.8,49.2-10.4,8.9-.4,20,1.1,23.4,10.7,2.4,6.8-1.1,13.7-5.2,19-8.2,10.6-20.8,16.5-32.5,22.4-2,1-4,2.2-6.1,3s-5.5.9-8.9-.4l-12.8-4.8-27.2-10.4a13.1,13.1,0,0,0,2.1,1.6Z" transform="translate(-315.2 -0.9)"/><path d="M730.6,123.9a136,136,0,0,0-47.6,9.6c-3.8,1.5-7.6,3.2-10.3,6.3s-3.9,7.8-1.8,11.3,9,4.9,14.2,4.3a79.8,79.8,0,0,0,51.3-28.3l-4.3-2.1" transform="translate(-315.2 -0.9)" fill="url(#d)"/><path d="M729.4,123a141.9,141.9,0,0,0-46,9c-5.8,2.2-12.8,5.1-14.5,11.8-1.1,4.3.9,7.7,4.4,10,8.5,5.6,21.2,1.5,29.9-1.7a79.9,79.9,0,0,0,34.5-24.2,12.7,12.7,0,0,0-2.1-1.5l-4.4-2c-1-.5,1.3,1.1,1.7,1.3l4.3,2.1-2-1.5a81.4,81.4,0,0,1-26.5,20.8,77.9,77.9,0,0,1-15.5,5.7c-5,1.3-12.3,3.4-17.3,1.5-7.5-2.8-5-11.3-.3-15.3s10.2-5.4,15.4-7.2a141.5,141.5,0,0,1,40.8-7.1c-.3,0-1.6-1.7-2.4-1.7Z" transform="translate(-315.2 -0.9)"/><g opacity="0.5"><path d="M925.7,262.7c-88.1,41.4-289.8,9.2-321.5-1.1-12.6-4.1-48.9-24.4-51.7-25.9,0,0,33.8-52,49.6-78.2,21.3-35.3,49-73.8,79.1-101.9,27-25.2,62.7-44,99.5-40.7,25.2,2.3,48.8,15.1,67,32.8s31.1,40.1,40.6,63.6C896.1,130.7,925.7,262.7,925.7,262.7Z" transform="translate(-315.2 -0.9)" fill="url(#e)"/><path d="M924.4,261.9c-24.2,11.2-51.3,15.7-77.6,18.2-30.6,3-61.4,2.9-92.1,1.3q-42.7-2.1-85.1-8c-19.4-2.7-38.9-5.6-57.9-10.2-21.3-5.1-40.8-17.5-59.7-28.1l1.8,1.4c19-29.2,37.3-58.8,55.8-88.3,15.8-25.1,33.3-49.5,53.2-71.6s40.3-40.2,66.5-51.5,55.3-13.1,82-1.9c30.4,12.9,52.3,39.3,67,68.1s20.1,59.3,27.4,89.5c4,16.7,7.8,33.5,11.7,50.2,2.2,9.7,3.6,20,6.7,29.4l.3,1.5c.2.8,2.4,1.1,2.5,1.5-5.4-24.3-11.1-48.7-16.9-73-4.1-17.5-8.3-34.9-12.9-52.3-3.4-13.3-7.1-25.9-13-38.4C862.3,53.1,818.5,9.5,763.1,14c-61.3,5-105.9,59.7-138.6,106.4-14.6,20.9-27.5,42.9-41.2,64.5q-15,23.7-30.2,47.2l-1.8,2.8c-.2.2,1.6,1.2,1.8,1.3,9,5,18,9.9,27.2,14.6s18.1,9.7,27.9,12.5c16.9,4.8,34.7,7.4,52.1,10,58.9,8.9,119.5,13.7,179,9.3,29.7-2.2,60.4-6.5,87.6-19.2C926.6,263.6,925,261.6,924.4,261.9Z" transform="translate(-315.2 -0.9)"/></g><path d="M924.4,261.9c-24.2,11.2-51.3,15.7-77.6,18.2-30.6,3-61.4,2.9-92.1,1.3q-42.7-2.1-85.1-8c-19.4-2.7-38.9-5.6-57.9-10.2-21.3-5.1-40.8-17.5-59.7-28.1l1.8,1.4c19-29.2,37.3-58.8,55.8-88.3,15.8-25.1,33.3-49.5,53.2-71.6s40.3-40.2,66.5-51.5,55.3-13.1,82-1.9c30.4,12.9,52.3,39.3,67,68.1s20.1,59.3,27.4,89.5c4,16.7,7.8,33.5,11.7,50.2,2.2,9.7,3.6,20,6.7,29.4l.3,1.5c.2.8,2.4,1.1,2.5,1.5-5.4-24.3-11.1-48.7-16.9-73-4.1-17.5-8.3-34.9-12.9-52.3-3.4-13.3-7.1-25.9-13-38.4C862.3,53.1,818.5,9.5,763.1,14c-61.3,5-105.9,59.7-138.6,106.4-14.6,20.9-27.5,42.9-41.2,64.5q-15,23.7-30.2,47.2l-1.8,2.8c-.2.2,1.6,1.2,1.8,1.3,9,5,18,9.9,27.2,14.6s18.1,9.7,27.9,12.5c16.9,4.8,34.7,7.4,52.1,10,58.9,8.9,119.5,13.7,179,9.3,29.7-2.2,60.4-6.5,87.6-19.2C926.6,263.6,925,261.6,924.4,261.9Z" transform="translate(-315.2 -0.9)"/><g opacity="0.68"><path d="M617.9,253.3l5.1-21.7c5.2-22.6,10.5-45.3,18.9-66.9,12.2-31,30.6-59,49-86.7,6.5-9.9,17.9-26.9,24.5-36.8l.5-2.3a286.4,286.4,0,0,0-83.6,86.9c-14.9,24.1-26.1,50.3-37.2,76.4l-16.4,38.3L614.6,252Z" transform="translate(-315.2 -0.9)" fill="#fff"/></g><g opacity="0.68"><path d="M912.7,254C883.1,72.8,820.1,43.2,820.1,43.2c49.6,142.4,37.4,224.4,37.4,224.4,0,4.8,39.9-5.2,55.9-9Z" transform="translate(-315.2 -0.9)" fill="#fff"/></g><rect width="798.3" height="755.36" fill="none"/></svg>