<svg xmlns="http://www.w3.org/2000/svg" xmlns:xlink="http://www.w3.org/1999/xlink" viewBox="0 0 798.3 755.4"><defs><linearGradient id="a" x1="595.47" y1="626.96" x2="578.5" y2="626.6" gradientUnits="userSpaceOnUse"><stop offset="0" stop-color="#fff"/><stop offset="1"/></linearGradient><linearGradient id="b" x1="475.48" y1="659.38" x2="656.24" y2="659.38" xlink:href="#a"/><linearGradient id="c" x1="519.3" y1="630.66" x2="558.91" y2="633.52" xlink:href="#a"/><linearGradient id="d" x1="545.81" y1="641.4" x2="550.16" y2="691.58" xlink:href="#a"/><linearGradient id="e" x1="573.26" y1="529" x2="579.25" y2="541.43" xlink:href="#a"/><linearGradient id="f" x1="571.92" y1="536.24" x2="579.79" y2="553.21" xlink:href="#a"/><linearGradient id="g" x1="574.93" y1="551.89" x2="581.26" y2="569.5" xlink:href="#a"/><linearGradient id="h" x1="576.05" y1="565.16" x2="583.81" y2="584.64" xlink:href="#a"/><linearGradient id="i" x1="575.77" y1="580.24" x2="589.32" y2="598.28" xlink:href="#a"/><linearGradient id="j" x1="860.38" y1="677.39" x2="898.88" y2="679.39" xlink:href="#a"/><linearGradient id="k" x1="540.28" y1="524.15" x2="549.34" y2="542.99" xlink:href="#a"/><linearGradient id="l" x1="538.29" y1="534.03" x2="550.25" y2="559.84" xlink:href="#a"/><linearGradient id="m" x1="543.08" y1="557.39" x2="551.64" y2="581.2" xlink:href="#a"/><linearGradient id="n" x1="544.66" y1="575.41" x2="556.13" y2="604.18" xlink:href="#a"/><linearGradient id="o" x1="543.88" y1="596.02" x2="564.31" y2="623.21" xlink:href="#a"/><linearGradient id="p" x1="682.88" y1="552.85" x2="726.14" y2="552.48" xlink:href="#a"/><linearGradient id="q" x1="824.25" y1="619.6" x2="872.75" y2="623.1" xlink:href="#a"/><linearGradient id="r" x1="824.18" y1="644.13" x2="881.18" y2="704.88" xlink:href="#a"/><linearGradient id="s" x1="865.35" y1="566.33" x2="855.85" y2="612.58" xlink:href="#a"/><linearGradient id="t" x1="860.5" y1="545.28" x2="861" y2="589.28" xlink:href="#a"/><linearGradient id="u" x1="868.66" y1="535.39" x2="858.16" y2="562.89" xlink:href="#a"/><linearGradient id="v" x1="870.15" y1="509.65" x2="857.9" y2="542.65" xlink:href="#a"/><linearGradient id="w" x1="880.58" y1="504.05" x2="871.83" y2="524.05" xlink:href="#a"/><linearGradient id="x" x1="743.37" y1="168.98" x2="741" y2="232.09" xlink:href="#a"/><radialGradient id="y" cx="728.56" cy="147.73" r="502.63" gradientTransform="translate(1269 -388.4) rotate(118.4) scale(1 1.49)" gradientUnits="userSpaceOnUse"><stop offset="0" stop-color="#fff"/><stop offset="0.94"/></radialGradient><linearGradient id="z" x1="724.49" y1="326.37" x2="727.61" y2="362.91" xlink:href="#a"/><linearGradient id="aa" x1="437.53" y1="349.87" x2="466.27" y2="458.7" xlink:href="#a"/><radialGradient id="ab" cx="454.47" cy="392.31" r="137.62" gradientTransform="translate(-7 420.2) rotate(-14) scale(1 0.22)" xlink:href="#a"/><linearGradient id="ac" x1="682.31" y1="94.61" x2="711.65" y2="273.63" xlink:href="#a"/><linearGradient id="ad" x1="714.48" y1="200.14" x2="676.76" y2="221.1" xlink:href="#a"/><linearGradient id="ae" x1="692.45" y1="99.15" x2="711.31" y2="154.53" xlink:href="#a"/><linearGradient id="af" x1="693.18" y1="113.24" x2="712.04" y2="159.94" xlink:href="#a"/><linearGradient id="ag" x1="938.19" y1="138.06" x2="361.33" y2="181.25" gradientUnits="userSpaceOnUse"><stop offset="0" stop-color="#cce0f4"/><stop offset="0.06" stop-color="#c3dcf2"/><stop offset="0.17" stop-color="#a9d2ee"/><stop offset="0.31" stop-color="#80c2e7"/><stop offset="0.46" stop-color="#47acde"/><stop offset="0.57" stop-color="#1e9cd7"/><stop offset="0.87" stop-color="#0075be"/><stop offset="0.99" stop-color="#005b97"/></linearGradient><linearGradient id="ah" x1="390.54" y1="165.45" x2="558.44" y2="198.07" gradientUnits="userSpaceOnUse"><stop offset="0" stop-color="#fff"/><stop offset="0.79"/></linearGradient><linearGradient id="ai" x1="1077.6" y1="266.4" x2="1063.41" y2="331.87" gradientTransform="translate(-26.6 109.9) rotate(-5.8)" xlink:href="#a"/><linearGradient id="aj" x1="558.54" y1="458.54" x2="554.02" y2="530.03" gradientUnits="userSpaceOnUse"><stop offset="0" stop-color="#99aac2"/><stop offset="0.99" stop-color="#2b4970"/></linearGradient><linearGradient id="ak" x1="736.5" y1="469.78" x2="731.98" y2="541.27" xlink:href="#aj"/><linearGradient id="al" x1="856.82" y1="477.37" x2="852.31" y2="548.87" xlink:href="#aj"/><linearGradient id="am" x1="742.84" y1="241.15" x2="740.59" y2="288.16" xlink:href="#a"/><radialGradient id="an" cx="426.77" cy="310.89" r="35.82" gradientUnits="userSpaceOnUse"><stop offset="0" stop-color="#fff"/><stop offset="0.71" stop-color="#f40005"/><stop offset="0.82" stop-color="#f20005"/><stop offset="0.86" stop-color="#eb0005"/><stop offset="0.89" stop-color="#e00005"/><stop offset="0.92" stop-color="#cf0004"/><stop offset="0.94" stop-color="#b90004"/><stop offset="0.96" stop-color="#9d0003"/><stop offset="0.97" stop-color="#7d0003"/><stop offset="0.99" stop-color="#590002"/><stop offset="1" stop-color="#300001"/></radialGradient><radialGradient id="ao" cx="930.49" cy="406.77" r="14.21" xlink:href="#an"/><radialGradient id="ap" cx="462.71" cy="38.6" r="12.34" xlink:href="#an"/><radialGradient id="aq" cx="733.73" cy="509.62" r="9.62" gradientUnits="userSpaceOnUse"><stop offset="0" stop-color="#fff"/><stop offset="1" stop-color="#f40005"/></radialGradient><radialGradient id="ar" cx="559.66" cy="494.96" r="13.16" xlink:href="#an"/><radialGradient id="as" cx="850.43" cy="491.41" r="5.17" gradientTransform="translate(0 -218.6) scale(1 1.44)" xlink:href="#aq"/><linearGradient id="at" x1="1038.53" y1="367.73" x2="1002.39" y2="362.88" gradientUnits="userSpaceOnUse"><stop offset="0" stop-color="#fff"/><stop offset="0.96"/></linearGradient><radialGradient id="au" cx="1024.9" cy="353.99" r="33.42" gradientUnits="userSpaceOnUse"><stop offset="0" stop-color="#fff"/><stop offset="0.35" stop-color="#f40005"/><stop offset="0.52" stop-color="#f20005"/><stop offset="0.59" stop-color="#eb0005"/><stop offset="0.63" stop-color="#e00005"/><stop offset="0.67" stop-color="#cf0004"/><stop offset="0.7" stop-color="#b90004"/><stop offset="0.73" stop-color="#9d0003"/><stop offset="0.75" stop-color="#7d0003"/><stop offset="0.77" stop-color="#590002"/><stop offset="0.79" stop-color="#300001"/></radialGradient><linearGradient id="av" x1="964.21" y1="328.65" x2="964.49" y2="376.48" xlink:href="#a"/><linearGradient id="aw" x1="634.01" y1="347.01" x2="633.01" y2="414.51" xlink:href="#a"/><linearGradient id="ax" x1="727.99" y1="376.02" x2="732.35" y2="438.93" gradientUnits="userSpaceOnUse"><stop offset="0" stop-color="#99aac2"/><stop offset="0.17" stop-color="#94a6be"/><stop offset="0.37" stop-color="#879ab4"/><stop offset="0.57" stop-color="#7086a3"/><stop offset="0.79" stop-color="#506a8c"/><stop offset="0.99" stop-color="#2b4970"/></linearGradient><linearGradient id="ay" x1="570.75" y1="605.33" x2="603.56" y2="606.04" xlink:href="#a"/><linearGradient id="az" x1="575.28" y1="605.87" x2="627.43" y2="606.75" xlink:href="#a"/><linearGradient id="ba" x1="716.23" y1="554.05" x2="729.3" y2="663.27" gradientUnits="userSpaceOnUse"><stop offset="0" stop-color="#fff"/><stop offset="0.9"/></linearGradient><linearGradient id="bb" x1="774.17" y1="336.42" x2="775.67" y2="446.92" xlink:href="#a"/><linearGradient id="bc" x1="749.37" y1="557.45" x2="767.64" y2="618.65" xlink:href="#a"/></defs><title>starship00</title><path d="M568.2,613.1c.7,7,.6,13.9,1.3,20.9.2,2.5.7,3.9-.6,7.1h-.1c4.1.3,8.3,2.8,12.4,3.1-6-9.6-6.3-23.6-4.4-35l-.6.7-7.1,3.3Z" transform="translate(-315.2 -0.9)" fill="url(#a)"/><path d="M566.9,612.3c.5,5.3.7,10.7,1,16,.2,2.2.5,4.3.6,6.5,0,.6-.5,5.5-.5,5.5l1.9,1.7c4.2.6,8.1,2.5,12.4,3.1.1,0,.1,0,.1-.1-6.2-10.4-6.3-23.2-4.4-34.9,0-.4-2.2-2.1-2.3-2-1.8,2-6.1,3.6-8.8,4.2.4-.1,1.8,1.6,2.4,1.7,2.3.2,7.1-2.3,8.7-3.9l-2.3-2a65.7,65.7,0,0,0,0,23.8,37.4,37.4,0,0,0,1.2,4.5c.3.9,2.6,5,2.4,5.6-.7,2.1-9.5-1.6-11.7-1.9l1.9,1.7h.1c0-.1.4.2.4.1,1.5-3.9.5-7.7.3-11.8s-.5-10.8-.9-16.2C569.3,613.2,567,612.7,566.9,612.3Z" transform="translate(-315.2 -0.9)"/><ellipse cx="222.7" cy="687.2" rx="36.5" ry="39.1" fill="#1a1a1a" stroke="#000" stroke-miterlimit="10"/><ellipse cx="221.5" cy="687.2" rx="21" ry="21.8" fill="#999" stroke="#000" stroke-miterlimit="10"/><ellipse cx="294.7" cy="689.2" rx="36.5" ry="39.1" fill="#1a1a1a" stroke="#000" stroke-miterlimit="10"/><ellipse cx="293.5" cy="689.2" rx="21" ry="21.8" fill="#999" stroke="#000" stroke-miterlimit="10"/><ellipse cx="199.5" cy="701.2" rx="38.3" ry="41" fill="#1a1a1a" stroke="#000" stroke-miterlimit="10"/><ellipse cx="198.3" cy="701.2" rx="20.2" ry="21" fill="#fff" stroke="#000" stroke-miterlimit="10"/><ellipse cx="198.3" cy="701.2" rx="11.6" ry="12" fill="#fff" stroke="#000" stroke-miterlimit="10"/><ellipse cx="274.5" cy="704.2" rx="38.3" ry="41" fill="#1a1a1a" stroke="#000" stroke-miterlimit="10"/><ellipse cx="273.3" cy="704.2" rx="20.2" ry="21" fill="#fff" stroke="#000" stroke-miterlimit="10"/><ellipse cx="273.3" cy="704.2" rx="11.6" ry="12" fill="#fff" stroke="#000" stroke-miterlimit="10"/><ellipse cx="556.5" cy="697.2" rx="38.3" ry="41" fill="#1a1a1a" stroke="#000" stroke-miterlimit="10"/><ellipse cx="555.3" cy="697.2" rx="20.2" ry="21" fill="#fff" stroke="#000" stroke-miterlimit="10"/><ellipse cx="555.3" cy="697.2" rx="11.6" ry="12" fill="#fff" stroke="#000" stroke-miterlimit="10"/><path d="M475.5,667.5c-.3-5.8,3.2-14.7,8-18s7.2-6.5,13-7c35-3,78.3-5.5,121,0,5.7.7,19.7,3.7,25,6s9.5,3.6,11,9.1,5.4,19.8,0,21.9c-14-27-41.7-23.2-61.2-24.1a393.6,393.6,0,0,0-116.4,12" transform="translate(-315.2 -0.9)" fill="url(#b)"/><path d="M476.7,668.4a24,24,0,0,1,5.9-16.2,28.3,28.3,0,0,1,19.1-9.2c15.7-1.4,31.4-2.4,47.1-2.8a511.2,511.2,0,0,1,52.5,1.2c13.3,1.1,26.9,2.6,39.7,6.9,4,1.3,9,3.2,10.7,7.3a45.5,45.5,0,0,1,2.3,8c.8,4.1,3,12.6-1.7,15l2.4,1.7c-9-16.7-25.1-24-43.5-25.2a483.4,483.4,0,0,0-81.6,1.4,394.2,394.2,0,0,0-55,10.1c.5-.1,1.8,1.8,2.6,1.6a396.5,396.5,0,0,1,105.7-12.3c11.3.2,22.9.1,34.1,1.2a60.5,60.5,0,0,1,15.2,3.2c9.1,3.4,15.6,10,20.1,18.4.2.3,2,1.9,2.4,1.7,4.7-2.4,2.5-11,1.7-15s-1.6-9.4-5.3-12.5c-7.6-6.4-19.3-8.4-28.6-10.1-18.1-3.5-37.1-4.1-55.5-4.3s-38,.7-57,2c-4.9.4-9.8.6-14.7,1.2s-7.1,2.6-10.4,5.1c-6.5,4.9-10.8,11.3-10.6,19.8,0,.8,2.4,1.4,2.4,1.8Z" transform="translate(-315.2 -0.9)"/><path d="M558.6,619.1c-.8,7-.7,13.9-1.5,20.9-.3,2.5-.8,3.9.7,7.1h.1c-4.5.4-9.3,2.8-13.8,3.2,6.7-9.7,7-23.7,4.9-35.1l.7.7,7.8,3.3Z" transform="translate(-315.2 -0.9)" fill="url(#c)"/><path d="M557.4,618.3c-.6,5.6-.7,11.3-1.1,17-.3,3.9-1.2,7.2.4,10.9.1.4,1.9,2.1,2.3,1.9h.1s-1.8-2-2.3-1.9c-4.8.6-9.2,2.6-13.9,3.1l2.3,1.9c6.8-10.3,7-23.2,4.9-35l-1.8-1.4c2.7,2.7,7.8,5.6,11.5,5.3-.4,0-1.7-1.6-2.4-1.7s-6.8-1.9-7.8-2.8-1.7-1.2-1.8-1.4c2.1,11.8,1.9,24.8-4.9,35.1a7.3,7.3,0,0,0,2.3,1.9c4.8-.6,9.2-2.6,13.9-3.1l-2.3-1.9h-.2L559,648c-1.7-4.1-.5-8.4-.2-12.7s.5-10.2,1-15.3C559.9,619.3,557.4,618.5,557.4,618.3Z" transform="translate(-315.2 -0.9)"/><path d="M469.3,686.5c10.9-13.5,24.7-17.4,41.8-20.9,36.5-7.4,98.5-1.2,120.4,14.5a1.9,1.9,0,0,0,2.9-1.8c-2.2-9.8-21.7-19.3-31.7-22.5-39.2-12.3-59.3-9.7-89-6.6-11.9,1.3-25.9,1-34.3,9.5-5.9,5.8-12.7,8.4-13.9,19.8-.1.8-1.7,6.9-1.1,7.4,2.1,1.7,6.1,1,7.1-1.7" transform="translate(-315.2 -0.9)" fill="url(#d)"/><path d="M470.4,687.5c10-12.1,23.8-17,38.7-20.2a185,185,0,0,1,40.6-3.8,247.9,247.9,0,0,1,44.7,4.2c12,2.2,24.6,5.1,35.1,11.4,1,.6,2.8,2.4,4.2,2.3,3.3-.3,1.2-4.3.3-5.8-2.1-3.4-5.4-6.2-8.6-8.6-10.9-8.3-24.1-12.6-37.2-16a164.5,164.5,0,0,0-42.5-5.3c-14.1.2-28,2.2-42,3.4-8,.7-16.8,1.7-23.4,6.8-4.9,3.8-11.4,8.8-14.1,14.6-1.4,3.1-1.8,6.5-2.5,9.9-.3,1.5-1.1,3.4-.3,4.8,1.9,3.5,7.5,3.2,9.2-.1.2-.3-2.3-1.9-2.3-1.9-.9,1.8-4.4,3.6-4.8,2.4s.8-4.4,1.1-6c1.2-6.1,3-10.3,7.7-14.5s8.5-8.2,13.8-10.5,12.9-3.2,19.5-3.8c12.2-1,24.3-2.7,36.6-3.1a157.2,157.2,0,0,1,38.7,3.5c13.5,2.9,27.1,6.7,38.9,13.9,4,2.5,8.8,5.5,10.7,10,.4,1.1,1.4,3.3,0,4s-2.7-.7-3.7-1.1a107.9,107.9,0,0,0-11.3-5.6c-22.1-8.5-47.2-10.8-70.7-10.9a190.7,190.7,0,0,0-39.9,3.8c-15,3.2-28.7,8.1-38.8,20.2-.1.3,2.1,2.2,2.3,2Z" transform="translate(-315.2 -0.9)"/><path d="M554.8,535.2c6-2.8,23-6.9,34.6-9.6a18.2,18.2,0,0,1,6.1-.7,6.8,6.8,0,0,1,5.2,3.2c-16.6,9.3-29.9,14.2-47.2,17.8C553.6,543.3,552.6,536.3,554.8,535.2Z" transform="translate(-315.2 -0.9)" fill="url(#e)"/><path d="M556.1,535.9c5.6-2.5,11.6-3.9,17.4-5.4l11.8-2.9c3.4-.8,8-2.8,11.5-2,5.3,1.3-5.1,5.9-7,6.9q-6,2.8-12.3,5.4a183.1,183.1,0,0,1-25.3,7.3l2.6,1.3c0-2.9-1.3-8.6,1.3-10.6-.1.1-2.1-1.7-2.6-1.3-2.7,2-1.3,7.7-1.4,10.6,0,.4,2.3,1.4,2.6,1.3a167.4,167.4,0,0,0,47.4-17.7H602c-4.5-6.3-12.3-4.1-18.7-2.6-9.9,2.3-20.5,4.3-29.8,8.5C553.8,534.4,555.4,536.2,556.1,535.9Z" transform="translate(-315.2 -0.9)"/><path d="M551.4,558.6c-.5-5.3,1.5-11.4,6.1-13.5,14-6.3,28.6-12.5,43.3-11.3,2,2.1,4,5.7,3.4,7.4-17.2,5.4-44.1,18.1-52.7,17.4Z" transform="translate(-315.2 -0.9)" fill="url(#f)"/><path d="M552.7,559.4c-.2-3.9.5-8.3,3.2-11.3s8.9-5.1,13.1-6.8c10.6-4.3,21.5-7.6,33.1-6.8l-2.6-1.3c1.5,1.8,4.6,5.6,2.8,7.6s-6.3,2.1-8.1,2.7L577.3,550c-8.8,3.4-17.6,7.1-27.1,7.9.3-.1,1.7,1.5,2.5,1.5,8.3-.7,16.1-3.8,23.9-6.8l17.7-6.8,8.3-3c2.7-.9,3.6-1.1,2.4-4-3.9-9.8-17.1-5.6-24.9-3.6a146.3,146.3,0,0,0-22.3,8.5c-5.9,2.8-8,7.7-7.7,14.1C550.2,558.5,552.7,559.1,552.7,559.4Z" transform="translate(-315.2 -0.9)"/><path d="M605.4,545.9c2,1.9,1.2,9.2-.6,11.3s-5.2,2.1-7.7,3c-13.1,4.5-25.6,6.9-39.6,16.1-1.9,1.2-2.5.2-4.7,0s-3.1-2.7-3.7-4.8a1.2,1.2,0,0,1,.4-1.4C555,566.2,591.9,540.6,605.4,545.9Z" transform="translate(-315.2 -0.9)" fill="url(#g)"/><path d="M604.2,545.2c1.6,2.4,1.2,6.3.4,8.9s-3.1,3.9-6.1,4.7c-7,1.9-13.9,4.1-20.7,6.5a97.3,97.3,0,0,0-10.6,4.2c-2.2,1-4.2,2-6.3,3.2s-5.1,4.1-7.8,3.2c-5.7-1.9-1.6-5.5.9-7.3a241.7,241.7,0,0,1,24.9-15c7.5-3.8,18.9-10.1,27.7-7.1a16.6,16.6,0,0,0-2.3-1.3c-7-2.4-15.5,1.3-21.9,4.1a181.4,181.4,0,0,0-25.8,14.5,65.2,65.2,0,0,0-7.5,5c-2.4,2.2-.5,5.4,2.1,7s6.1,2.1,9.2.2a106,106,0,0,1,20.8-9.6c7.2-2.5,14.8-4.2,22-6.8,4.6-1.6,6.4-9.1,3.5-13.1C606.2,545.8,604.4,545.5,604.2,545.2Z" transform="translate(-315.2 -0.9)"/><path d="M555.1,581.2c-2.4,1.3-4.1,4.3-3.2,7s11.2-.5,13.2-1.1c15.4-5.2,30.3-13.6,43.7-13.6,2.5-4,1.3-12.8-5.1-11.8-15.3,2.6-30.6,6.6-43.6,16.7C560.1,578.4,557.4,579.8,555.1,581.2Z" transform="translate(-315.2 -0.9)" fill="url(#h)"/><path d="M553.7,580.5c-3.1,2.2-5.1,6.7-.9,8.6s7.3.3,10.6-.5c15.9-3.7,29.9-14,46.6-14.4h.1c1.9-3.6,1.8-8.8-1.7-11.3s-6.9-1.8-10.9-1a113.1,113.1,0,0,0-22.5,6.5c-7.6,3.1-14.1,8.1-21.3,12.1.3-.2,2.1,1.7,2.7,1.4,10.2-5.8,19.3-12.1,30.7-15.5,3.2-.9,6.5-1.7,9.8-2.4s6.9-2.4,9.2-1.6,2.7,3.9,2.6,6-.6,3.9-3.4,4.4c-5.4,1.1-10.4,1.8-15.7,3.7s-12.1,4.7-18.1,7.1a81.3,81.3,0,0,1-12.7,4c-.3,0-5.8,1.3-6.3.7l1.1-3.4a7.3,7.3,0,0,1,2.8-3C556.2,582,554.2,580.1,553.7,580.5Z" transform="translate(-315.2 -0.9)"/><path d="M558.1,601.1c.7-5,33.4-29.7,50-24.1-.3.9.2,4.9.5,8.4a4.8,4.8,0,0,1-4,5.4A72.6,72.6,0,0,0,564.4,611C562.8,606.1,557.6,605.2,558.1,601.1Z" transform="translate(-315.2 -0.9)" fill="url(#i)"/><path d="M559.4,601.8c.6-2.5,3.6-4.7,5.5-6.3a87.8,87.8,0,0,1,12.6-9.1c8.8-5.4,21.1-12,31.7-8.7l-2.4-1.4c-.7,3.8,2,8.6-.5,11.9s-4,2-6.2,2.4a64.2,64.2,0,0,0-8.6,2.3,73.3,73.3,0,0,0-28.4,17.4l2.6,1.4c-1.5-3.5-6.3-5.9-6.2-9.9,0-.6-2.7-1.2-2.7-1.4,0,4.1,4.8,6.2,6.3,9.9.1.3,2.4,1.7,2.6,1.4a74.3,74.3,0,0,1,28.4-17.3,49.7,49.7,0,0,1,7.8-2.1c2.3-.5,4.9-.4,6.6-2.1,3.2-3.2.2-8.6.9-12.5.1-.4-2.1-1.3-2.4-1.4-10.1-3-21.6,2.6-30.2,7.5a95.4,95.4,0,0,0-13.9,9.6c-2,1.7-5.5,4.2-6.1,7C556.7,600.9,559.4,601.8,559.4,601.8Z" transform="translate(-315.2 -0.9)"/><path d="M868,658.5c-1.3,13-1.5,30-1.9,42.8a3.9,3.9,0,0,0,2.9,3.5,3.6,3.6,0,0,0,3.7-1.3,9.2,9.2,0,0,0,1.5-3.8c1.1-5.5.7-14.6,1.3-20.2,1-10,1.4-19.1,0-27-4.2-1.6-5.1-2.8-6.7.3a8.3,8.3,0,0,0-.4,1.5Z" transform="translate(-315.2 -0.9)" fill="url(#j)"/><path d="M866.8,657.7c-.8,7.5-1.1,14.9-1.4,22.4l-.3,11c-.1,2.9-1.1,7.9,0,10.6s3.2,3.5,5,3.9c6,1.3,5.9-8.3,6.1-12.1l1.2-20.6a94.2,94.2,0,0,0,.2-11.9c-.1-2,.4-6.2-.8-7.8s-4.8-2.8-6.1-2.9c-4-.4-3.7,4.5-4,7.5,0,.6,2.6,1.3,2.6,1.5.2-1.4.1-2.8.4-4.2,1-4.4,3.1-3.4,6.9-1.9l-2.4-1.4c1.4,8.3.9,16.7.2,25.1s.3,15.5-1.6,22.7c-.4,1.2-1,3.7-2.5,4-4,1-2.8-4.4-2.8-6.1.1-4.1.2-8.3.4-12.4.2-8.6.6-17.2,1.4-25.8C869.4,658.7,866.7,657.9,866.8,657.7Z" transform="translate(-315.2 -0.9)"/><path d="M512.5,533.5c9-4,34.6-9.7,51.9-13.6,3.1-.6,6.1-1.3,9.2-.9s6.2,1.7,7.8,4.4c-24.9,13.1-44.9,20-70.9,25.1C510.7,544.9,509.2,535,512.5,533.5Z" transform="translate(-315.2 -0.9)" fill="url(#k)"/><path d="M513.8,534.2c8.2-3.6,17.2-5.5,25.8-7.6l16.4-3.8c5.5-1.3,13.4-4.5,18.9-3.2,3.1.8,5.8,2,2.7,4.5a32.9,32.9,0,0,1-4.2,2.1l-9.7,4.6q-8.4,3.8-17.1,6.9a255,255,0,0,1-37.4,10.1l2.6,1.4c.1-4-1.9-12.4,2-15-.2.1-2.1-1.7-2.6-1.4-4,2.6-2,11.1-2,15-.1.4,2.2,1.4,2.6,1.4a263.5,263.5,0,0,0,71-25.1h-.1c-7.2-10-21.9-4.3-31.6-2.1-13.2,3.1-27.4,5.5-39.9,10.9C511.6,532.7,513.1,534.5,513.8,534.2Z" transform="translate(-315.2 -0.9)"/><path d="M507.4,566.5c-.7-7.5,2.2-16,9.1-19,21-9,42.9-17.7,65-16,3,3,6,8,5.2,10.5-25.9,7.5-66.2,25.5-79.2,24.5Z" transform="translate(-315.2 -0.9)" fill="url(#l)"/><path d="M508.7,567.3c-.4-5.7.8-11.9,4.9-16.2s13.8-7.1,20.2-9.5c15.7-6,32-10.5,49-9.4l-2.6-1.3c1.9,2.1,3.9,4.5,4.8,7.3s.7,2.7-1.5,3.7-7.6,2.4-11.2,3.6c-8.7,3-17.3,6.2-26,9.3-13.1,4.8-26.2,9.9-40.1,11,.3-.1,1.7,1.5,2.5,1.5,8.7-.7,16.8-3,25.2-5.8,12.4-4.2,24.7-8.9,37.1-13.3l9.1-3.1c1.9-.6,7.3-1.4,8-2.9s-4-9.5-6.4-10.8c-4.5-2.3-12.3-.7-17.1-.2a120.2,120.2,0,0,0-23.7,5.6c-8.8,2.9-18.8,5.9-26.9,10.6-6.4,3.7-8.3,11.4-7.9,18.3C506.2,566.5,508.7,566.9,508.7,567.3Z" transform="translate(-315.2 -0.9)"/><path d="M588.5,548.5c2.9,2.7,1.7,13.1-1,16s-7.8,3-11.6,4.2c-19.6,6.3-38.4,9.8-59.4,22.8-2.8,1.7-3.8.3-7,0s-4.6-3.8-5.6-6.8a1.5,1.5,0,0,1,.7-1.9C512.9,577.2,568.2,541.1,588.5,548.5Z" transform="translate(-315.2 -0.9)" fill="url(#m)"/><path d="M587.2,547.9c3.3,3.9,2,13.7-2,16.8S578,567,574.6,568l-13.1,4c-8.5,2.5-17.1,5-25.4,8.3-4.4,1.8-8.6,3.7-12.7,5.8s-8.6,6.5-13.7,4.9c-3.1-.9-5.9-5.3-3.3-7.9a27.4,27.4,0,0,1,3.6-2.3c3.7-2.4,7.5-4.8,11.3-7a267.4,267.4,0,0,1,32.6-17.3c10.2-4.5,24.4-11.1,35.7-7.3a8.3,8.3,0,0,0-2.2-1.4c-10.2-3.4-22.6,1.6-32,5.5-13,5.4-25.5,12.3-37.6,19.6-4,2.4-8,4.9-11.9,7.5-1.6,1-3.3,1.6-3.3,3.6s2.6,5.4,4.5,6.7a14.3,14.3,0,0,0,4.9,1.7c4.6,1,6.6-.8,10.8-3.1a160.1,160.1,0,0,1,29.9-12.5c10.4-3.3,21.1-5.8,31.4-9,4.7-1.5,6.4-4.3,7.1-8.9.5-3.1.8-7.2-1.4-9.8C589.2,548.5,587.5,548.2,587.2,547.9Z" transform="translate(-315.2 -0.9)"/><path d="M512.9,598.3c-3.5,1.9-6.1,6.2-4.8,10s16.9-.7,19.9-1.6c23.1-7.3,45.5-19.2,65.5-19.2,3.8-5.6,2-18-7.6-16.6-23,3.7-45.9,9.3-65.4,23.6C520.5,594.5,516.4,596.4,512.9,598.3Z" transform="translate(-315.2 -0.9)" fill="url(#n)"/><path d="M511.6,597.6c-3.4,2.2-7.9,8.4-3.2,11.3s7.3,1.2,10.7.7c15.9-2.4,30.7-9.9,45.8-15.1,9.4-3.3,18.5-4.8,28.3-6.3,2.6-.3,3.1-2.4,3.4-5.1a14.3,14.3,0,0,0-.9-6.8,11.2,11.2,0,0,0-7.2-5.9c-3.1-.8-6.6.2-9.7.8s-8.5,1.6-12.7,2.5a149.4,149.4,0,0,0-29,9.6c-8.9,4.1-16.9,9.8-25.5,14.3.3-.1,2,1.8,2.6,1.4,12-6.3,22.9-13.9,35.8-18.5a177.5,177.5,0,0,1,21.3-6l11.7-2.2c3.5-.6,7.1-1.9,9.5,1.5s2.7,9.8.1,12.3-8,1.2-10.6,1.6a88.2,88.2,0,0,0-8.9,2c-15,4-29.1,10.6-43.7,15.4a76.3,76.3,0,0,1-14.9,3.3,19.5,19.5,0,0,1-3.4.3c-1.8,0-1.8.1-2-1.6-.4-3.4,2.5-6.4,5.1-8.1C514,599.2,512.1,597.3,511.6,597.6Z" transform="translate(-315.2 -0.9)"/><path d="M517.5,626.5c1-7,50-42,75-34-.5,1.2.3,6.9.8,11.8a7,7,0,0,1-6.1,7.7,110.6,110.6,0,0,0-60.3,28.5C524.5,633.5,516.7,632.3,517.5,626.5Z" transform="translate(-315.2 -0.9)" fill="url(#o)"/><path d="M518.8,627.2c.8-3.6,5.5-6.8,8.1-9a149.9,149.9,0,0,1,19.4-13.1c13.3-7.5,31.6-16.6,47.3-11.9l-2.4-1.4c-1.3,5.7,3.7,13.7-2,18.1-2.6,1.9-6.7,1.8-9.8,2.4a117.2,117.2,0,0,0-12,3.1,112.7,112.7,0,0,0-41.8,24.3l2.6,1.5c-2-5.1-9.7-8.4-9.4-14,.1-.6-2.6-1.2-2.6-1.4-.3,5.9,7.3,8.8,9.4,13.9.2.4,2.4,1.7,2.6,1.5A112.7,112.7,0,0,1,570,616.9a95.7,95.7,0,0,1,12-3c3.1-.7,7.2-.5,9.8-2.5,5.7-4.4.7-12.4,2-18.2.1-.4-2.1-1.3-2.4-1.4-15.2-4.5-32.6,3.7-45.7,10.8A143.4,143.4,0,0,0,525.3,616c-2.8,2.2-8.3,5.8-9.1,9.8C516.1,626.3,518.8,627.2,518.8,627.2Z" transform="translate(-315.2 -0.9)"/><path d="M712.2,539.9c3,3.6,4.4,9.5,3.9,14.9s-2.9,10.5-6.2,13.6l23.6-1c1-2.9,0-6.5-1.4-9.2s-3-5.4-3.3-8.6c-.4-5.5,3.2-9.8,6.4-13v1.7" transform="translate(-315.2 -0.9)" fill="url(#p)"/><path d="M710.9,539.2c6.2,8.5,4.9,21-2.3,28.5a10.9,10.9,0,0,0,2.5,1.5l23.6-1h0c1.6-6.4-3-10.5-4.3-16.3s2.3-10.7,6.2-14.6l-2.7-1.4v1.8c0,.6,2.7,1.1,2.7,1.3v-1.7c0-.4-2.5-1.6-2.7-1.4-2.7,2.8-5.5,5.9-6.2,9.8s1.1,7.5,2.8,11.1c.9,1.9,2.7,5.3,2.1,7.5s-4.6,2.5-7.2,2.6l-16.8.7,2.6,1.6c7.2-7.6,8.5-20.1,2.3-28.7-.5-.7-2.4-.9-2.6-1.3Z" transform="translate(-315.2 -0.9)"/><path d="M872.3,604.7c-.9,9-.8,17.8-1.8,26.8-.3,3.2-1,5,.8,9.1h.2c-5.6.4-11.4,3.6-17,4,8.3-12.4,8.6-30.3,6-45l.9.9,9.6,4.2Z" transform="translate(-315.2 -0.9)" fill="url(#q)"/><path d="M871.1,603.8c-.7,7-.8,14-1.3,21-.3,5.2-1.6,9.9.4,14.9.1.3,2,2,2.3,1.8h.2s-1.9-1.9-2.4-1.8c-5.8.7-11.1,3.3-17,4l2.4,1.8c8.4-13.2,8.5-29.9,5.9-44.9l-2-1.6a16.7,16.7,0,0,0,2.8,2.5c2.7,1.7,7.8,4.3,11.1,4.2-.2,0-1.7-1.6-2.3-1.8-2.5-.5-8.7-2.5-9.8-3.7s-2-1.3-2-1.6c2.5,15.1,2.4,31.8-6.1,45.1a5.6,5.6,0,0,0,2.4,1.8c5.8-.6,11.1-3.3,17-4l-2.4-1.8h-.1l2.3,1.8c-2.1-5.4-.6-11.1-.2-16.7s.6-12.9,1.2-19.2C873.6,604.9,871.1,604.1,871.1,603.8Z" transform="translate(-315.2 -0.9)"/><path d="M804.8,686.7l2.3.2c3.3.3,7.1-1,8.5-4.1,16.9-37.3,32.9-43.3,71.7-40.7a.4.4,0,0,1,.4.2l8.1,9.6a.6.6,0,0,1-.5,1c-22.3-1.5-33.8.6-50.3,23.2-3.5,4.7-7.2,9.5-12.1,12.7-8.7,5.6-27.5,6.2-33.8-1.9a.6.6,0,0,1,.6-1l5.1.8Z" transform="translate(-315.2 -0.9)" fill="url(#r)"/><path d="M806,687.5c2.9.3,5.9.5,8.4-1.1s4.9-8.2,6.8-11.7c3.6-6.8,7.7-13.3,13.1-18.8,9.7-9.7,22.6-13,36-13.5,4.2-.1,8.4-.1,12.6.1.9.1,5.8.3,3.7-.7.8.4,1.8,2,2.4,2.7s4.6,4.2,5.1,6.2-1.1,1.2-2.8,1.2l-7.5-.2c-6.7.1-13.4,1-19.5,4s-13.4,10.2-18.5,16.8c-6.7,8.6-12.4,16.9-23.7,19a35.2,35.2,0,0,1-15.5-.3c-2.3-.6-9.4-4.6-4.1-4.2,1.2,0,2.3.4,3.5.5-.4,0-1.5-1.5-2.3-1.6s-6-1.8-5.9.2,4.6,3.9,5.8,4.6c7,3.8,15.8,3.9,23.4,1.9,11.6-3,17-13.6,24.2-22.1,6-7,13-13.1,22-15.5a52.1,52.1,0,0,1,14.2-1.7c1.8,0,10,1.4,9.6-.8s-4.3-5-5.5-6.6-2.1-2.8-3.7-3.7-5.8-1.2-8.7-1.3a144.2,144.2,0,0,0-14.7.1c-7.3.5-14.6,1.8-21.2,5s-13.9,10.2-18.8,17.4a125.6,125.6,0,0,0-8.5,15.2c-2.8,5.9-5.5,7.8-12.2,7.3C804,685.9,805.2,687.5,806,687.5Z" transform="translate(-315.2 -0.9)"/><path d="M880.9,593.7c-7.3-3.5-12-9.6-19.4-13.2-3.4-1.7-9.2-3.9-13-4s-6.8-.3-9,2-9.2,7.1-8,10,12.1,8.7,16.1,10l34.1,16a3,3,0,0,0,3.8-2.1c1.2-4.5.5-13.3,0-17.9" transform="translate(-315.2 -0.9)" fill="url(#s)"/><path d="M879.9,592.7c-12.1-6.2-22-19.5-37.4-17.1-3.4.6-11.6,6.7-12.1,10.4s2.7,5,4.6,6.5c5.4,4.1,12,6.3,18.1,9.1l24.1,11.3c1.8.8,4.7,2.9,6.8,2.7,5.7-.6,3-16.5,2.6-20.1-.1-.9-2.2-1.5-2.2-2,.4,4,3,17.4-1.5,19.8-2.3,1.2-6.2-1.7-8.1-2.6l-25.5-11.9c-2.7-1.3-5.6-2.3-8.3-3.6s-10.3-4.2-7.5-8.8c1.5-2.5,4.4-4.4,6.5-6.3,5.9-5.2,15.1-2,21.4.9s13.2,9.9,20.6,13.8c-.5-.3-1.3-1.7-2.1-2.1Z" transform="translate(-315.2 -0.9)"/><path d="M835,556.6c-3.9.4-5.1,4.7-4.9,8.2s4.6,6.3,8.4,7.7c15.4,5.8,32.7,14.4,48.3,20.3a2.5,2.5,0,0,0,3.2-1c2.7-4.5,1.5-13.7-.5-18.3-3.2-7.5-32.8-17.3-50-17Z" transform="translate(-315.2 -0.9)" fill="url(#t)"/><path d="M833.9,555.7c-4.9,1-6.4,7.7-3.6,11.5,1.6,2.3,4.4,4.1,7,5.4,7.2,3.4,14.8,6,22.1,9.2s15.6,6.9,23.6,10.1c2.4,1,6,3.5,8.2.8s1.6-5.8,1.5-8.3-.8-9-3.5-12.1c-5-5.6-13-8.6-19.9-10.9a99.5,99.5,0,0,0-35.4-5.7c.5,0,1.4,1.9,2.3,1.9a100.3,100.3,0,0,1,46.3,10.3c6,3.2,7.4,7.2,7.9,13.8.1,2.6.2,5.8-1,8.1s-5.7,1.3-8.6.1c-7.3-2.9-14.5-6.2-21.8-9.4s-14.3-6-21.5-8.9c-3.9-1.6-6.8-3.8-6.2-8.2s1.8-5.2,4.9-5.8C835.8,557.7,834.6,555.5,833.9,555.7Z" transform="translate(-315.2 -0.9)"/><path d="M854.5,535.5c-7.9-3-13-1-20.2-1.1-1.3,0-1.7,1.9-1.5,3.2,3.9,18.5,27.3,24.3,47.7,27.9,2.1.4,9.7,4.8,11,3s.6-13.7-2-16c-10.4-9-21.9-12.1-35-16.5Z" transform="translate(-315.2 -0.9)" fill="url(#u)"/><path d="M853.4,534.5a27.5,27.5,0,0,0-9-1.6,43.6,43.6,0,0,0-5.1.3c-1.5.1-4.8-.3-6.2.3-4,1.8.8,9.7,2.4,11.9,4.9,6.9,12.6,11.5,20.3,14.5a114.6,114.6,0,0,0,18.2,5.2c2.6.5,5.5.8,8.1,1.5s4.4,2,6.7,2.7c4.8,1.5,5.1-2.2,4.9-6.4s-1-7.4-3.5-10c-9.5-9.8-24.3-13.7-36.8-17.8l2.3,1.8v-.5c-.1-.8-2.4-1.4-2.4-1.8v.5c.1.5,1.8,1.7,2.3,1.8,6.2,2.1,12.5,4,18.5,6.6a61.8,61.8,0,0,1,10.8,5.7c4.3,3,5.5,4.7,6.2,9.4.5,3,1.5,9.6-3,9.2s-8-3.1-12.1-3.9c-11.6-2.2-25-4.8-34.3-12.6-1.9-1.6-11.7-12.9-6.7-15.7,1.7-1,6.8-.6,8.8-.7a29.6,29.6,0,0,1,11.8,1.6C855.1,536.3,854.2,534.8,853.4,534.5Z" transform="translate(-315.2 -0.9)"/><path d="M849.4,530.8l-23-7.4c8.9-5.9,20-7.8,30.6-6.8s15.8,4.7,24.5,10.9c3,2.2,9.4,5,12,8s3.8,4.4,2,10c-1.3,3.8-4.3,4.6-8.4,4.1s-7.7-2.3-11.3-4.2l-24-12.7Z" transform="translate(-315.2 -0.9)" fill="url(#v)"/><path d="M848.3,529.9l-23-7.4,2.3,1.8a48.1,48.1,0,0,1,34.4-6.2c9.6,1.8,16.6,8.1,24.8,12.9,5.4,3.1,10.2,6.9,7.5,13.6-1.9,4.9-7.2,4.7-11.7,3.4-6.6-1.9-12.9-6.1-18.9-9.3s-10-4.7-14.2-8c-1.3-1-1.5-.8-.2.3a67,67,0,0,0,10.3,6.2c7.3,3.8,14.5,8.3,22,11.5,4.9,2,12.6,4,15.1-2.3,1.9-4.7.3-8-3.2-11.3s-8.1-5.3-12.2-8-9-6.5-14.2-8.6c-13.2-5.6-29.9-3.6-41.9,4a8.8,8.8,0,0,0,2.3,1.8l23,7.5C850.1,531.6,849.1,530.2,848.3,529.9Z" transform="translate(-315.2 -0.9)"/><path d="M852.5,513.5c-2.8-1.9,0-3.3-2.9-5.2a19.9,19.9,0,0,1,12.8-4.6A39.7,39.7,0,0,1,876,506a80.6,80.6,0,0,1,18.7,9,17,17,0,0,1,5,4.6c1.2,1.9,1.6,4.5.3,6.4a6.3,6.3,0,0,1-5.3,2.5c-2.1-.1-4.3-.3-6-1.5-15-11.4-24-9.2-35.8-13.3Z" transform="translate(-315.2 -0.9)" fill="url(#w)"/><path d="M853.2,513.9a13.4,13.4,0,0,1-1.5-4c.2-2,1.8-2.7,3.7-3.5,5.3-2.3,11.2-2.1,16.7-.9a68.2,68.2,0,0,1,18.2,7.1c3.9,2.2,9.5,5,9.3,10a5,5,0,0,1-3.7,4.6c-4.9,1.6-8.6-1.7-12.4-4a48.6,48.6,0,0,0-10.2-5.1c-6.9-2.4-15.3-2.1-21.8-5.4a10.9,10.9,0,0,0,2,1.6c7.6,3.9,17.1,3.4,25,6.8,5.4,2.3,9.8,7.6,15.7,8.2s9.3-2.4,7.3-7.6c-2.5-6.7-13.4-11.1-19.2-13.7-10.6-4.6-23.8-8.6-33.8-.6-.1,0,.3.3.2.3,1.6,1.5,1.4,3.8,3.1,5.4S854.5,515.1,853.2,513.9Z" transform="translate(-315.2 -0.9)"/><path d="M913.6,276.1c-121.5,21-233.2,4.8-353-24.3l-3.8-2.7c-3.9-1.2-2.5-14.3.6-16.9s7.5-3.2,11.5-2.6c119,18.7,224.2,21.3,339.7,18.8a14.4,14.4,0,0,1,12.6,6.8c3.3,5.1,6.7,14.3,3.1,18.6Z" transform="translate(-315.2 -0.9)" fill="url(#x)"/><path d="M912.3,275.4a686.2,686.2,0,0,1-163.2,7.7c-54.3-3.8-108.1-13.4-161.2-25.4l-19-4.4a39.5,39.5,0,0,0-5.7-1.4c-.1,0-2.8-.2-2.1,0-1.2-.4-2.3-1.7-3.5-2.5a4.2,4.2,0,0,1-1.4-.9h-.3c1.1.5,1.2.1.2-1.1s-.3-1.5-.3-2.2c-.3-3.4,0-8.2,2-11.1s9.6-4,14.3-3.3l21.5,3.2q21.1,3,42.3,5.4c53,6.1,106.3,9.3,159.7,10.3q44.9.8,89.5,0l22.9-.4c9.2-.1,13.7,5.9,15.8,14.2,1,3.9,1.6,8.8-2.7,10.1a82.4,82.4,0,0,1-8.9,1.9c.6-.1,1.8,1.6,2.7,1.4l8.5-1.8a5.4,5.4,0,0,0,2.2-.5c2.2-1.6,1.6-6.1,1.2-8.3-1.5-7.3-5.5-13.9-12.4-17-4.7-2.1-9.7-1.5-14.7-1.4l-22.7.4c-14.4.2-28.7.3-43.1.2-57.4-.1-114.9-2.3-172.1-7.7-29.5-2.8-58.9-6.5-88.2-10.9-5.5-.9-12.1-2.6-16.9,1.2-3,2.4-3.6,7.4-3.6,11s.3,4.7,2.2,6.4a7.5,7.5,0,0,0,1.5.9c1.1.7-1.7-1.1-.2-.1l2.7,1.9c2,1.4,3.7,1.8,6.3,2.4l22.8,5.3c14.4,3.3,28.8,6.4,43.3,9.2,29,5.7,58.1,10.4,87.4,13.7,65.2,7.1,131,6.2,195.7-4.9C914.5,276.9,913.1,275.3,912.3,275.4Z" transform="translate(-315.2 -0.9)"/><path d="M500.3,25.5c5.8,17.9,26.1,188.2,28.1,213.9a4.6,4.6,0,0,0,.5,2l.2.2a5,5,0,0,0,8.3.8c4-4.9,6.2-11.1,15.3-6,2.8,1.5,41.9,21.9,54.5,26,31.6,10.4,232.8,41,320.9-.4.7-.4,15,17,15.4,17.8,22,41.6,88.5,23.1,99.2,27.4,5,2.1,3.7,12.3.5,13.2-18,5.4-44.4,11-50,11.4s-8.1,31.3-8.6,41.9a5.3,5.3,0,0,1-2.8,4.3c-15.2,8.3-21.8,38.7-66,88.1-29.5,33-69,68-191,74.3-114,6-260-7.6-291.3-86.6-9.6-24.2-19.7-89.5-18.3-100s1.6-35.1,4.6-44.7c5.4-16.7,4.3-25.1,7.5-44.1,1-5.9-.8-12.2,5-10.9,1,.2,18,5.8,19,6,6,1.2,4.5-6.5,6.5-14.5,10.4-41.5,19.9-145.8,16.5-151-2.3-3.5-9.9-2.4-14-3s-5.9,1.3-5.5-1.5,3.5-20.7,1.5-24c-3.3-5.8-9.5-9.9-15-13.3L415.2,35.3c-13-9.9-30.5-16.6-43.4-24.6a1.1,1.1,0,0,1,.5-2.1c13.2-.9,65.5-.7,90.1-1.5,9.4-.4,19.3-.6,27.5,4.1,5.6,3.2,7.6,5.8,9.7,12.1Z" transform="translate(-315.2 -0.9)" fill="url(#y)"/><path d="M499.1,24.7c2.2,7.2,3.1,15,4.2,22.4,2.2,13.8,4.1,27.6,6,41.4q6.6,49.6,12.4,99.3c1.4,12.4,2.8,24.7,4.1,37.1.7,6.5-.7,17,6.9,19.7,4.3,1.6,6.3-2,8.6-4.9,3.7-4.8,7.1-5.2,12.6-2.5l14.7,7.6c13,6.7,26.4,14.2,40.4,18.6,21.2,6.7,44.3,9.3,66.3,12.2a947.3,947.3,0,0,0,111.6,8.2c36.9.4,74.7-1.2,110.7-10.1a182.3,182.3,0,0,0,22.8-7.1l4.6-1.9c.5-.2,2.2-.6,2.6-1.1l.9-.4c-1-1.4-1.1-1.7-.5-1,2.5,1,5.3,5.9,7,7.9,4.1,4.8,7.2,9.8,10.9,14.8a50.1,50.1,0,0,0,15,13.3c13.2,7.9,28.8,10.1,43.9,10.3,7.2.1,14.5-.3,21.7-.7,4.8-.3,10.2-1.2,14.9-.3,2.9.5,3.4,2.9,3.3,5.9-.1,5-2.4,6.1-6.9,7.4-10.8,3-21.8,5.7-32.8,7.9-3.6.8-7.2,1.5-10.9,2s-3.6.4-4.9,2.8c-3.5,6.2-3.9,15.2-4.6,22.2-.4,3.9-.7,7.9-.9,11.9s.1,7.2-3.6,9.8a43.7,43.7,0,0,0-9.7,9.5c-9.1,12.5-16.3,26.4-25,39.1-17.9,26.2-39.1,52.4-65.2,71s-60.2,29.8-93,35.7c-46.6,8.3-95,9.4-142.2,7.5-42.4-1.8-85.5-6.5-125.9-19.8-34.1-11.1-69.7-30-84-64.9-6.6-16.1-9.7-34-12.7-51-2.8-15.2-5.8-30.9-6.1-46.4-.1-6.8,1-13.7,1.4-20.5.6-9,.8-18.5,3.3-27.3,2.9-10.4,4.4-20.5,5.7-31.2.6-5.8,1.8-11.5,2.2-17.3.3-4.1.4-7.9,5.5-6.6s11.8,4.7,17.9,5.7c3.6.6,4.7-1.8,5.2-4.9s1.5-9.1,2.6-13.7c3.7-16.5,6.1-33.4,8.3-50.3s4.5-37,6-55.6c1-12.1,2.4-24.5,1.8-36.7-.1-2.9-.3-4.4-2.7-6.2a13.1,13.1,0,0,0-6.7-2.3c-2.2-.2-4.4-.2-6.6-.3s-4.4.3-6.2-.2l2.4,1.6c-1.2-1.6.5-6.5.7-8.3a81,81,0,0,0,1.1-11.9c.1-6.7-4.7-10.9-9.7-14.7-8.5-6.4-17.8-12-26.7-17.9s-15.6-10.7-24-15.2c-4.4-2.4-8.8-4.6-13.2-6.8l-7.1-3.7c-1.9-1-7.3-2.8-3.5-4.4,1.6-.6,4.6-.2,6.2-.3l10.3-.2c16.7-.3,33.4-.3,50.2-.5l26.2-.6c5.9-.2,12.6-.4,18.1,1.7,2.5.9,8.5,4.3,10.2,6.3a14.6,14.6,0,0,1,1.7,3,51.4,51.4,0,0,1,2.2,5.9c.2.8,2.3,1,2.5,1.5-2.5-7.9-6.4-12.7-13.9-16.4-10.5-5.2-22.8-3.6-34.2-3.3-22,.5-43.9.4-65.9.7l-11.7.3c-1.7.1-7.2-.5-5.3,2.5s6.7,4.2,9.3,5.6c6.2,3.3,12.6,6.3,18.8,9.7,14.9,7.9,28.4,18.4,42.5,27.6,6,3.9,14.4,8.5,14.5,16.5a93.4,93.4,0,0,1-1.2,14c-.3,2.3-1.8,5.8-.1,7.8s5.2,1.2,7.6,1.3,9.8-.7,11.3,1.9c.6,1.1.4,3.1.4,4.3.6,14.8-1.2,29.8-2.5,44.5-1.9,21-4.3,42.1-7.4,63-1.4,9.2-2.9,18.4-4.8,27.6-.8,3.9-1.7,7.8-2.6,11.7s-.1,12.1-4,13.7-7.5-1.5-9.8-2.3-7-2.5-10.6-3.4-5.3,1.3-5.5,5.3c-.5,6.8-1.7,13.4-2.5,20.1s-1.1,11.2-2.2,16.7-3.1,11.1-4.2,16.7c-2.1,10.9-2.2,22.2-3,33.2a107.1,107.1,0,0,0-.4,17.9c.8,8.9,2.1,17.7,3.5,26.5,3.1,19.5,6.5,39.5,12.8,58.3,11.3,33.6,42.3,54.7,73.7,67.6,43.2,17.7,91,23.5,137.3,25.8,51.3,2.5,104.1,1.5,154.6-8.5,35.1-6.9,69.5-19.4,97.2-42.7,29.4-24.6,51.6-56.9,71.5-89.3,3.4-5.5,6.7-11.2,11-16.2a32.7,32.7,0,0,1,5.5-5c1.3-.9,2.9-1.5,3.8-2.9s.9-4.3,1-6.4c.5-9.3,1.2-18.8,3.2-27.9.6-2.7,1.2-7.3,3.5-9.2s5.3-1.4,7.6-1.8c11.5-2,22.9-4.7,34.2-7.7,4.2-1.1,10.8-1.3,12.2-6.1.9-3,.6-6.9-1.7-9.2s-6.7-3-10.5-3c-6.8,0-13.5.7-20.3,1-18.9.8-41.3.4-57.1-11.4-7-5.2-10.6-12.7-16-19.2-3.7-4.6-7.5-10.5-12.5-13.9-2.1-1.5-2.9-.5-5.4.5s-7.6,3.2-11.5,4.5a228.5,228.5,0,0,1-27,7.2c-20.7,4.3-41.9,6.3-63,7.2-42.9,1.9-86-.5-128.6-5.2-28-3.1-57-6.2-84.2-13.9-15.7-4.3-30.5-13.1-44.8-20.4-5-2.5-10.2-6.1-15.6-7.9s-7.4.7-10.2,4.3c-1.3,1.7-2.4,3.9-4.5,4.7s-3.9-1.3-4.3-3.8c-1.5-10.4-2.1-21.1-3.3-31.6-1.9-17.2-3.9-34.3-6-51.4-4.3-34.9-8.6-69.9-13.9-104.7-1.3-8.4-2.2-17.3-4.8-25.5C501.4,25.4,499.2,25.2,499.1,24.7Z" transform="translate(-315.2 -0.9)"/><path d="M858.4,324.1c4.3,10.8-15.6,13-23.9,14.4-27.6,4.5-55.4,7.6-83.3,9.8s-55.9,3.4-83.9,4.2c-14,.4-28.1.6-42.1.8-4,.1-40.2-2.2-41,0,3-7.8,16.4-8,23.4-9l194.6-25.6c16-2.2,33.8-5.1,49,1.9,12.4,5.8,33.8,17.6,13.8,30.5a31.8,31.8,0,0,1-11.4,4.4c-89.7,16.9-182.1,17.7-273.2,12.2a2.3,2.3,0,0,1-2.3-2.3,16.3,16.3,0,0,1,6.1-12.1" transform="translate(-315.2 -0.9)" fill="#ccc"/><path d="M857.1,323.4c2.3,6.7-4.3,9.9-9.7,11.5-8,2.4-16.6,3.3-24.7,4.5-24.8,3.7-49.7,6.4-74.7,8.3s-49.4,3.1-74.2,3.8c-18.8.6-37.9,1.6-56.7.8-7.2-.3-14.3-.6-21.5-.7-2.1,0-11.2-1.2-12.7,1l2.6,1.4c2.9-6.2,10.5-7.4,16.6-8.2l26.4-3.3,62.9-8.3,64.9-8.6c20.5-2.7,41-5.9,61.5-8,9.4-.9,19-1.2,28.1,1.4s20.6,7.8,24.8,16-2.8,13-8.5,16.2c-8.8,4.9-20.2,5.4-29.9,7-42.2,6.8-84.9,10.2-127.6,11.3-23.7.6-47.4.5-71.1-.1-11.7-.4-23.4-.8-35-1.4l-9.7-.5c-2.1-.1-7.1.5-8.6-.9-3.3-2.8,2.8-10.4,5.2-12.5-.1,0-2.2-1.9-2.6-1.6-3.7,3.2-9.6,11.9-3.3,15.3,2.9,1.5,6.6,1,9.7,1.2l19.4,1c23.4,1,46.7,1.6,70.1,1.6,46.7-.1,93.4-2.8,139.7-9.3,11.5-1.6,23-3.4,34.5-5.6,7.5-1.5,20.6-5.8,21.4-15.2s-16.3-18-24-21.5c-18.8-8.5-40.7-3.3-60.3-.7l-71.7,9.5-80.5,10.6c-11.8,1.6-23.6,3.3-35.5,4.6-6.8.8-16.2,1.5-19.5,8.6a6,6,0,0,0,2.6,1.4c1.4-2,10.1-.9,12.1-.9,6.4.1,12.9.3,19.3.6,17.8.7,35.7,0,53.6-.5,49.7-1.4,99.6-4.4,148.9-11.5,9.3-1.3,18.8-2.4,28-4.6,5.9-1.5,15-4.5,12.3-12.3-.3-.8-2.5-.9-2.6-1.4Z" transform="translate(-315.2 -0.9)"/><path d="M583.7,352.5c.8-2.2,37,0,41,0,14-.2,28.1-.5,42.1-.9,28-.7,56-2,83.9-4.2s55.7-5.3,83.3-9.8c8.3-1.3,28.2-3.5,23.9-14.4l1.1.8c12.4,5.7,26.7,14.9,6.8,27.8-3.5,2.2-8.7,2.1-12.7,2.9-89.7,16.9-182.1,17.7-273.2,12.2a2.4,2.4,0,0,1-2.3-2.4,16.1,16.1,0,0,1,6.1-12" transform="translate(-315.2 -0.9)" fill="url(#z)"/><path d="M585,353.2c1.4-2.1,10.1-1,12.1-1,6.5.1,12.9.4,19.3.6,17.9.8,35.7,0,53.6-.5,49.7-1.4,99.5-4.3,148.9-11.4,9.3-1.4,18.8-2.4,28-4.6,5.9-1.5,15-4.5,12.3-12.3l-1.7-.8c5.8,3.5,15,6.1,16.7,13.6s-8.2,14.6-14.4,15.9c-10.7,2.4-22,3.8-32.9,5.5-12.7,2-25.5,3.6-38.4,5-48.3,5.3-97.1,6.6-145.7,5.6-13.3-.3-26.6-.8-39.9-1.4-6.7-.3-13.7-.2-20.4-1.1-.6-.1-3,0-3.6-1s.4-3.5.8-4.5a16.1,16.1,0,0,1,5.3-7.5c-.1,0-2.2-2-2.6-1.6-4.3,3.7-10,14-1.5,16,5.5,1.3,12,.7,17.6,1l21.4.9c27.9,1.1,55.8,1.5,83.7.8s55.7-2.3,83.5-5.2c13.5-1.4,27-3.1,40.5-5.2,6.4-1,12.8-2,19.2-3.2s12.3-1.2,17.7-3.1c8-2.9,16.5-12.2,9.7-20.1-4.3-4.9-10.5-7-15.9-10.3-.1-.1-1.7-.7-1.7-.8,4.6,13.6-25.9,14.7-33.5,15.9-25.1,3.8-50.3,6.5-75.6,8.4s-49.4,3.1-74.2,3.9c-18.8.6-37.9,1.6-56.8.8-7.1-.3-14.2-.6-21.4-.7-2.1,0-11.2-1.2-12.7,1-.1,0,2.4,1.7,2.6,1.4Z" transform="translate(-315.2 -0.9)"/><path d="M349.1,418.5c27.9,10.2,58.8,10.2,88,5s57.3-15.6,85.2-25.9c8-2.9,16.1-6,22.3-11.7s8.1-11.1,7.9-17.5a6.4,6.4,0,0,0-5.4-6.1,201.2,201.2,0,0,0-20.5-2.5,247.1,247.1,0,0,0-102,13.2c-16.1,5.7-32.2,11.4-47.8,18.4-10.2,4.7-29.3,14.7-29.3,14.7-2.3.5-4.3,4.9-3.5,7.1S349.1,418.5,349.1,418.5Z" transform="translate(-315.2 -0.9)" fill="url(#aa)"/><path d="M350.2,419.3c32,11.4,66.6,10.1,99.3,2.8a467.1,467.1,0,0,0,51.8-15.5l24.7-9.1c7.5-2.8,15.3-6,20.9-11.9s11.3-19.8.3-23.8c-3.2-1.2-7.1-1.3-10.6-1.7s-9.3-1-13.9-1.4a241.2,241.2,0,0,0-26.9-.3c-35.3,1.4-68.2,11.5-101,24.2a405.8,405.8,0,0,0-41.9,19.2c-2.8,1.5-7.5,3-9.3,5.9-2.7,4.8,1.2,7.9,4.8,10.5.4.4,2.9,1.7,1.4.6-4.6-3.4-6.6-8.4-1-12,2.4-1.5,5.1-2.6,7.6-3.9,10.9-5.5,21.7-10.9,33-15.5,29.4-12.1,59.7-22.6,91.4-26.1a249.6,249.6,0,0,1,48.9-.6c4,.4,8.1.8,12.1,1.4s9,.3,9.4,5.5-3.4,13.2-7.9,17.4-11.7,7.8-18.3,10.3-15.1,5.6-22.7,8.3c-15.1,5.5-30.4,10.6-46.1,14.6-35.3,9.1-73.2,12-108.1-.4A7.5,7.5,0,0,0,350.2,419.3Z" transform="translate(-315.2 -0.9)"/><path d="M528.6,360.2c6.8.6,13.7,1.4,20.4,2.5a6.4,6.4,0,0,1,5.4,6.2c.2,6.4-3.1,12.9-7.9,17.4s-14.3,8.8-22.2,11.8c-27.9,10.2-56,20.6-85.2,25.8s-60.1,5.3-88-4.9c0,0-4.3-3.1-5.1-5.3s1.2-6.7,3.4-7.2h1.9c55,11.8,121.7,2,176.6-22.5,12.3-5.5,8.8-21.7.4-23.4Z" transform="translate(-315.2 -0.9)" fill="url(#ab)"/><path d="M529.8,361c4.3.4,8.7.8,13,1.4s10.2.4,10.4,6.4c.2,7.5-4.8,14.5-10.5,18.9s-15.3,7.9-23.2,10.9-17.3,6.3-26,9.3c-34.4,11.8-70.6,21.2-107.4,18.1a152.6,152.6,0,0,1-25.9-4.5c-3.7-1.1-8.3-1.7-11.1-4.5s-2.7-7.3.8-9.3,6.3.3,8.8.8,7.9,1.3,11.9,1.8a234,234,0,0,0,23.7,1.8c32.5,1,65.2-3.9,96.4-13.2,9-2.7,18-5.8,26.7-9.2,6.5-2.6,15.7-4.8,18.7-11.9a13.4,13.4,0,0,0-9-18.1l2.5,1.7.2-.4c.1-.1-2.2-1.9-2.5-1.6l-.2.3c-.2.2,2.1,1.6,2.4,1.7,5.9,1.5,5.9,11,3.9,15.2-3.1,6.6-11.5,8.6-17.7,11.1a311.9,311.9,0,0,1-50.1,15.4c-34.1,7.6-70,10.1-104.6,4.5-4.7-.7-13-4.7-15.7,1.1s1.5,7.5,5,9.9,10.7,4.2,15.8,5.4a155.3,155.3,0,0,0,27.8,4c37.9,2,74.9-8.8,110.2-21.3,9.8-3.5,19.8-6.8,29.4-10.9s16.7-8.6,20.4-17.4c8-18.6-14.2-18-26.5-19C527.8,359.4,528.9,361,529.8,361Z" transform="translate(-315.2 -0.9)"/><path d="M588,289c-21.5,15.5-64,44-64,44,3.8-7.9,10.3-27.7,10.3-27.7C513.7,316.2,474,336,474,336c1-3,13-22,13-22-12-1.4-23-1.6-35-3l53-12c-4.4,5.9-6.6,8.1-11,14l65-20c-4.8,7.2-12,15.4-16.8,22.6Z" transform="translate(-315.2 -0.9)" fill="#65baf7"/><path d="M671.9,267.8l-16.3-29.2c-8.2-14.6-16.5-29.9-17.1-46.6-.1-5.7.6-11.5,3-16.7a24.4,24.4,0,0,1,11.6-12.1c7.3-3.3,16.2-1.8,23.3,2s12.8,9.9,18.2,15.9a459.9,459.9,0,0,1,42,54.3c4.7,7.1,9.2,14.3,14.8,20.8s12.2,12.1,20.1,15.2L671,269.8" transform="translate(-315.2 -0.9)" fill="url(#ac)"/><path d="M673,268.8c-9.3-16.7-19.9-33.3-27.3-51-6.3-15.1-10.7-37,2.7-49.7,20.2-19,43.6,10,56.1,24.8a478.1,478.1,0,0,1,34.1,46.2c8.8,13.3,18.7,27,33.8,33.4l-1.9-2.2c-33.6-.6-67.1-1.2-100.6-1.5.6,0,1.4,2,2.2,2,33.5.7,66.9,1.2,100.4,1.7-.3,0-1.4-2-2-2.2-12.7-5.3-21-16-28.4-27.2-5.6-8.5-11.2-17-17.2-25.2-11.3-15.4-23.2-31.4-37.2-44.4-8.9-8.4-21.8-16.3-34.4-11.7-17.8,6.4-17.8,29.4-13.4,44.5,2.9,10,7.9,19.3,12.9,28.4,6,10.7,12.1,21.4,18.1,32.2.4.7,1.9,1.5,2.1,1.9Z" transform="translate(-315.2 -0.9)"/><path d="M667.7,167.7c-2.6,2.3-1.7,6.4-.7,9.8l6,19.1,9.9,31.5c2.1,6.5,4.3,13.3,9.1,18.1s15.4,7.7,24,9c2.6.4,6,.4,6.9-2.1s-.1-3.1-.8-4.5A372,372,0,0,0,670,169.5" transform="translate(-315.2 -0.9)" fill="url(#ad)"/><path d="M666.4,166.8c-4,4.9.5,13.5,2.1,18.5,2.7,8.4,5.4,16.9,8,25.3,4,12.4,6.4,27.9,16.7,36.9a34.1,34.1,0,0,0,13.9,6.8c3.5.9,14.1,4.5,16.7.3,1.5-2.5-1.1-6.1-2.2-8.3-2-4-4.1-8-6.2-11.9-4-7.3-8.3-14.5-12.8-21.6a383,383,0,0,0-31.4-42.6c-.6-.6-2.1-1.1-2.4-1.5a369.4,369.4,0,0,1,34.9,47.5c4.7,7.7,9.2,15.5,13.3,23.4,1.5,2.8,6.2,9.3,4.8,12.5s-5.8,2.2-8.3,1.8c-8.9-1.2-19.2-3.4-24.2-11.7s-6.2-16.3-8.7-24.3-5.4-17.1-8-25.7L668.7,180c-1.1-3.9-2.7-8,.2-11.5.1-.1-2.3-1.9-2.5-1.7Z" transform="translate(-315.2 -0.9)"/><path d="M661.3,156.6,706.9,174l12.2-6c12.6-6.3,25.9-13.3,32.9-25.4,2.1-3.7,3.6-7.9,3-12.1-.8-6.1-5.9-11-11.7-13.2s-12.1-2.1-18.3-1.6A162.8,162.8,0,0,0,674.1,128c-4.1,1.7-8.2,3.6-11.4,6.6s-5.8,7.1-5.7,11.6a12.5,12.5,0,0,0,6.8,10.9l.4-1.6" transform="translate(-315.2 -0.9)" fill="url(#ae)"/><path d="M662.4,157.4,692.5,169l7.3,2.8c2.1.8,5.1,2.5,7.3,2.8,3.8.4,9.7-4,13.2-5.7,13.6-6.8,32.7-16.2,35.8-32.9,2.5-13.4-12.8-20.8-23.8-21.4-18.8-.9-38.9,4.4-56.1,11.2-8.3,3.3-19.3,7.9-20.4,18.1-.7,6.4,3.5,10.8,8.6,13.7l.7.2.3-1.5c.1-.6-2.5-1.5-2.5-1.6-.3,1.5-3.3-2.2-3.4-2.6a11.4,11.4,0,0,1-1.3-5.1,15.2,15.2,0,0,1,3.7-9.5c4.6-5.6,12-8.3,18.5-10.8,15.6-5.9,32.5-9.8,49.2-10.4,8.9-.4,20,1.1,23.4,10.7,2.4,6.8-1.1,13.7-5.2,19-8.2,10.6-20.8,16.5-32.5,22.4-2,1-4,2.2-6.1,3s-5.5.9-8.9-.4l-12.8-4.8-27.2-10.4a13.1,13.1,0,0,0,2.1,1.6Z" transform="translate(-315.2 -0.9)"/><path d="M730.6,123.9a136,136,0,0,0-47.6,9.6c-3.8,1.5-7.6,3.2-10.3,6.3s-3.9,7.8-1.8,11.3,9,4.9,14.2,4.3a79.8,79.8,0,0,0,51.3-28.3l-4.3-2.1" transform="translate(-315.2 -0.9)" fill="url(#af)"/><path d="M729.4,123a141.9,141.9,0,0,0-46,9c-5.8,2.2-12.8,5.1-14.5,11.8-1.1,4.3.9,7.7,4.4,10,8.5,5.6,21.2,1.5,29.9-1.7a79.9,79.9,0,0,0,34.5-24.2,12.7,12.7,0,0,0-2.1-1.5l-4.4-2c-1-.5,1.3,1.1,1.7,1.3l4.3,2.1-2-1.5a81.4,81.4,0,0,1-26.5,20.8,77.9,77.9,0,0,1-15.5,5.7c-5,1.3-12.3,3.4-17.3,1.5-7.5-2.8-5-11.3-.3-15.3s10.2-5.4,15.4-7.2a141.5,141.5,0,0,1,40.8-7.1c-.3,0-1.6-1.7-2.4-1.7Z" transform="translate(-315.2 -0.9)"/><g opacity="0.5"><path d="M925.7,262.7c-88.1,41.4-289.8,9.2-321.5-1.1-12.6-4.1-48.9-24.4-51.7-25.9,0,0,33.8-52,49.6-78.2,21.3-35.3,49-73.8,79.1-101.9,27-25.2,62.7-44,99.5-40.7,25.2,2.3,48.8,15.1,67,32.8s31.1,40.1,40.6,63.6C896.1,130.7,925.7,262.7,925.7,262.7Z" transform="translate(-315.2 -0.9)" fill="url(#ag)"/><path d="M924.4,261.9c-24.2,11.2-51.3,15.7-77.6,18.2-30.6,3-61.4,2.9-92.1,1.3q-42.7-2.1-85.1-8c-19.4-2.7-38.9-5.6-57.9-10.2-21.3-5.1-40.8-17.5-59.7-28.1l1.8,1.4c19-29.2,37.3-58.8,55.8-88.3,15.8-25.1,33.3-49.5,53.2-71.6s40.3-40.2,66.5-51.5,55.3-13.1,82-1.9c30.4,12.9,52.3,39.3,67,68.1s20.1,59.3,27.4,89.5c4,16.7,7.8,33.5,11.7,50.2,2.2,9.7,3.6,20,6.7,29.4l.3,1.5c.2.8,2.4,1.1,2.5,1.5-5.4-24.3-11.1-48.7-16.9-73-4.1-17.5-8.3-34.9-12.9-52.3-3.4-13.3-7.1-25.9-13-38.4C862.3,53.1,818.5,9.5,763.1,14c-61.3,5-105.9,59.7-138.6,106.4-14.6,20.9-27.5,42.9-41.2,64.5q-15,23.7-30.2,47.2l-1.8,2.8c-.2.2,1.6,1.2,1.8,1.3,9,5,18,9.9,27.2,14.6s18.1,9.7,27.9,12.5c16.9,4.8,34.7,7.4,52.1,10,58.9,8.9,119.5,13.7,179,9.3,29.7-2.2,60.4-6.5,87.6-19.2C926.6,263.6,925,261.6,924.4,261.9Z" transform="translate(-315.2 -0.9)"/></g><path d="M924.4,261.9c-24.2,11.2-51.3,15.7-77.6,18.2-30.6,3-61.4,2.9-92.1,1.3q-42.7-2.1-85.1-8c-19.4-2.7-38.9-5.6-57.9-10.2-21.3-5.1-40.8-17.5-59.7-28.1l1.8,1.4c19-29.2,37.3-58.8,55.8-88.3,15.8-25.1,33.3-49.5,53.2-71.6s40.3-40.2,66.5-51.5,55.3-13.1,82-1.9c30.4,12.9,52.3,39.3,67,68.1s20.1,59.3,27.4,89.5c4,16.7,7.8,33.5,11.7,50.2,2.2,9.7,3.6,20,6.7,29.4l.3,1.5c.2.8,2.4,1.1,2.5,1.5-5.4-24.3-11.1-48.7-16.9-73-4.1-17.5-8.3-34.9-12.9-52.3-3.4-13.3-7.1-25.9-13-38.4C862.3,53.1,818.5,9.5,763.1,14c-61.3,5-105.9,59.7-138.6,106.4-14.6,20.9-27.5,42.9-41.2,64.5q-15,23.7-30.2,47.2l-1.8,2.8c-.2.2,1.6,1.2,1.8,1.3,9,5,18,9.9,27.2,14.6s18.1,9.7,27.9,12.5c16.9,4.8,34.7,7.4,52.1,10,58.9,8.9,119.5,13.7,179,9.3,29.7-2.2,60.4-6.5,87.6-19.2C926.6,263.6,925,261.6,924.4,261.9Z" transform="translate(-315.2 -0.9)"/><g opacity="0.68"><path d="M617.9,253.3l5.1-21.7c5.2-22.6,10.5-45.3,18.9-66.9,12.2-31,30.6-59,49-86.7,6.5-9.9,17.9-26.9,24.5-36.8l.5-2.3a286.4,286.4,0,0,0-83.6,86.9c-14.9,24.1-26.1,50.3-37.2,76.4l-16.4,38.3L614.6,252Z" transform="translate(-315.2 -0.9)" fill="#fff"/></g><g opacity="0.68"><path d="M912.7,254C883.1,72.8,820.1,43.2,820.1,43.2c49.6,142.4,37.4,224.4,37.4,224.4,0,4.8,39.9-5.2,55.9-9Z" transform="translate(-315.2 -0.9)" fill="#fff"/></g><path d="M418.7,246.6q4.7-28.2,9.4-56.4c2.5-15.3,5-30.6,7.6-45.9l3.8-23.1c.7-4.3,3.8-18.9,4.5-19.2,10.1-4,29.3-.9,36.2,6.1,1.6,1.6-2.6,21.5-3.7,28.2l-5,31.8-12.9,81.1a4.2,4.2,0,0,1-4.4,3.5c-8.1-.6-16.2-1.5-24.4-1.6C417.5,251,418.7,246.6,418.7,246.6Z" transform="translate(-315.2 -0.9)" fill="url(#ah)"/><path d="M420,247.3c4.8-29,9.7-58,14.5-87,2.2-13.2,4.1-26.5,6.6-39.7.6-3.8,1.5-7.6,2.4-11.4s.6-5.9,3.3-7c4.3-1.7,9.9-1.4,14.4-1s17.4,2.3,18.1,7.7c.3,3-.6,6.5-1.1,9.5s-1.5,8.7-2.3,13c-4.8,26.7-8.5,53.6-12.8,80.4L459.5,235c-.7,3.8-1.2,7.7-1.9,11.6s-2.6,5.5-7.4,5.1c-7.8-.6-15.6-.9-23.4-1.4-1.7-.1-7.5.2-6.8-3,.1-.4-2.6-1.4-2.6-1.4-.8,3.3,6.3,5.2,8.4,5.6,7.5,1.3,15.5.8,23.1,1.4,2.6.2,6.6,1.4,9,0s2.6-6.8,3.1-9.7c5.4-33.8,10.7-67.7,16.1-101.5,1.5-9.6,4-19.2,4.7-28.9.2-3.4-.2-4.3-2.9-6.2a33,33,0,0,0-8.4-4.2,47.5,47.5,0,0,0-15.8-2.9c-2.8,0-10.2-.3-12.3,2.2s-.9,3.3-1.2,4.5-1.2,5.1-1.7,7.6c-1.2,5.7-2.1,11.5-3.1,17.2q-9.4,57.5-19,114.9C417.3,246.4,420,247.3,420,247.3Z" transform="translate(-315.2 -0.9)"/><path d="M1033.2,304.7c4,.7,5.8,3,5.9,7.6a21.7,21.7,0,0,1-1,6.2l-3.3,10.3a2.3,2.3,0,0,0,2.1,3.1,108.2,108.2,0,0,0,63.6-14.5,2.4,2.4,0,0,0,0-4.2c-9-5.4-18.4-9.9-27.1-11.6-12.8-2.5-28.9-3.8-39.3-.6Z" transform="translate(-315.2 -0.9)" fill="url(#ai)"/><path d="M1034.4,305.6c5.8,1.3,3,10.1,1.8,14.2-.8,2.4-3.2,6.6-2.7,9.3s4.8,3.8,7.1,3.9a101.4,101.4,0,0,0,22.7-1.1,107.5,107.5,0,0,0,23.5-6.3c3.2-1.3,17.5-5.9,15.8-10.4s-7.1-5.2-9.5-6.5a77.9,77.9,0,0,0-20.9-8,120.2,120.2,0,0,0-25.4-2.5,62.5,62.5,0,0,0-10.6,1.1c-3.6.8-3.3,1.2-4.2,4.5-.1.6,2.5,1.7,2.4,1.8.8-2.9.5-3.7,3.5-4.4a62.6,62.6,0,0,1,13.6-1.2,104.2,104.2,0,0,1,26.1,3.2,79.7,79.7,0,0,1,14.3,5.5c2,1,6.4,2.4,7.8,4.3s-.2,3.3-2,4.4c-7.5,4.7-16.4,7.9-24.9,10.2a108.6,108.6,0,0,1-28.4,3.8c-1.9,0-5.1.5-6.9-.2s-1.4.4-1.4-1.9,1.4-4.3,2-6.1c2.4-7.9,3.9-17.1-6-19.4C1032.5,303.9,1033.5,305.4,1034.4,305.6Z" transform="translate(-315.2 -0.9)"/><path d="M631,478.2,480.8,473l-1.6,1.2c42.2,34.4,98.7,50.7,152.8,44.1,1.3-13.2,2.5-26.5,3.7-39.7Z" transform="translate(-315.2 -0.9)" fill="url(#aj)"/><path d="M629.8,477.4l-80.1-2.8-39.5-1.4-19.8-.7c-3.9-.1-9.2-1.6-12.5.9-.1,0,.4.3.3.3,40,32.3,91.3,49.6,142.8,46.6,3.3-.2,6.6-.5,9.8-.9a9.7,9.7,0,0,0,2.5-.2c.4-.4.3-3.4.3-4l.7-7c.8-9.6,1.7-19.2,2.6-28.8,0-.4-2-1.7-2.4-1.7l-4.7-.3c.4.1,1.6,1.6,2.4,1.6l4.6.4-2.4-1.7-3.3,36.8v1c.5,1.8-.1,2.5-1.8,2.2a18.4,18.4,0,0,1-3.3.3l-8.9.7c-5.1.2-10.3.3-15.5.1a206.4,206.4,0,0,1-59.3-10.4,215.8,215.8,0,0,1-29.8-12.5c-5.4-2.9-10.8-6-16-9.4-2.6-1.6-5.1-3.4-7.6-5.2s-7.7-4.8-7.8-6,11.4-1.1,13.8-1.1l18.8.7,35.6,1.2,83,2.9C631.8,479,630.6,477.5,629.8,477.4Z" transform="translate(-315.2 -0.9)"/><path d="M657.4,481.9l-4.5,40.5a1039.2,1039.2,0,0,0,155.8-3.3c2.4-12.8,4.9-25.6,7.4-38.3l-156.9,2.7" transform="translate(-315.2 -0.9)" fill="url(#ak)"/><path d="M656.1,481.1l-4.5,40.5c0,.4,2.1,1.6,2.4,1.6q49.3,2.7,98.7.7c15.8-.7,31.6-1.7,47.4-3.1l5.9-.5,1.9-.2c1.9.5,2.6-.2,2.4-2.1,1.4-3.3,1.5-7.9,2.2-11.5,1.6-8.3,3.2-16.6,4.9-24.9a7,7,0,0,0-2.4-1.7l-157,2.8c.3,0,1.5,1.6,2.3,1.6l157-2.7-2.4-1.7c-1.6,8-3.1,16-4.7,24L808,515.4c-.6,2.9-.5,2.8-3.5,3.1l-5.9.6c-16.7,1.4-33.5,2.5-50.2,3.2-32.2,1.2-64.5,1-96.7-.7l2.4,1.6,4.5-40.4c.1-.7-2.5-1.5-2.5-1.7Z" transform="translate(-315.2 -0.9)"/><path d="M827.4,479.5a86.4,86.4,0,0,0,.1,8.8l1.4,24.8,3.1-1.2c10.8-3.2,21.6-6.5,31.3-11.9s18.6-13.5,22.9-23.8l-58.5,3.7" transform="translate(-315.2 -0.9)" fill="url(#al)"/><path d="M826.1,478.8c-.4,11.1.9,22.5,1.5,33.6,0,.4,2.3,1.6,2.6,1.4,10.6-4.2,21.8-6.5,32.1-11.8s20.2-13.8,25.2-25c.1-.3-2.2-1.6-2.5-1.5L826.5,479c.3,0,1.6,1.7,2.4,1.7l58.5-3.7-2.5-1.5c-5,11.2-14.4,19.4-25.2,25s-21.5,7.6-32.1,11.9l2.6,1.4c-.6-11.1-1.9-22.5-1.5-33.6,0-.6-2.6-1.2-2.6-1.4Z" transform="translate(-315.2 -0.9)"/><path d="M554,224c-7.4-.6-14.5,5.9-14.5,13.3,35,30.1,83.7,37,129.6,42.1,85.8,9.5,174.1,16.6,257.3-6.4,4.6-1.3,9.3-2.7,13.2-5.7s6.6-7.6,5.9-12.4-6.9-10-12.8-10.7-11.9,1.1-17.7,2.8a586.8,586.8,0,0,1-339.5-.2c-8.3-2.5-18.4-7.8-17.4-16.4-1.5-1.3-2.7-5.4-4.3-6.6Z" transform="translate(-315.2 -0.9)" fill="url(#am)"/><path d="M552.8,223.2a14.2,14.2,0,0,0-12.7,6.8c-.9,1.6-2.5,4.8-1.8,6.6s5.1,4.2,6.5,5.3a157.3,157.3,0,0,0,27.7,16.3c23.7,10.8,49.5,15.9,75.1,19.4,30.1,4.1,60.4,7,90.6,9.2s60.6,3.3,91,1.9,62.5-5.4,92.9-13.3c9.3-2.4,30-8.1,23.9-22.3-3.2-7.3-12.7-10.5-19.9-9.8s-14.2,3.5-21.1,5.5-15.4,4.2-23.2,6c-14.3,3.5-28.8,6.4-43.3,8.7a585.7,585.7,0,0,1-93.5,7.6,587.5,587.5,0,0,1-102.6-8.9q-25.5-4.3-50.4-11c-9.1-2.5-24-4.6-30.1-12.3a10.9,10.9,0,0,1-2.2-4.1c-.3-1.1.1-2.8-.3-3.7a26.4,26.4,0,0,0-4.3-6.7c-.6-.6-2.3-1-2.6-1.3l.2.2c.6.7,2.3,1,2.6,1.4l-.2-.3-2.6-1.3a20.2,20.2,0,0,1,3.7,5.9c.9,2.2.7,4.5,1.8,6.6s4.9,5.5,7.9,7.3c9.7,5.7,21.4,7.9,32.1,10.8a583.3,583.3,0,0,0,85,15.7,586.5,586.5,0,0,0,172.4-6.6c13.9-2.6,27.7-5.7,41.3-9.3l20.4-5.8c7.7-2.3,20.6-6.3,25.8,2.6,8,13.5-12.3,20.3-21.3,22.7a395.4,395.4,0,0,1-44.3,9.1c-60,9-121,5.5-181.1-.6-29.8-3-60.1-5.6-89.3-12.6-14.8-3.6-29.4-8.3-42.9-15.3a132.6,132.6,0,0,1-13.6-8.2c-2.4-1.6-9.1-5.4-9.5-8.7-.9-7,8.7-12.1,14.3-11.9C554.8,224.8,553.6,223.2,552.8,223.2Z" transform="translate(-315.2 -0.9)"/><path d="M415.2,358.6a221.2,221.2,0,0,1,1.4-29.2c1.1-9.2,10.4-24.1,5.6-31.9l-4.5,4c2.2,4.7-2.4,9.8-6.8,12.6s-9.7,3.9-14.3,6.5-8.5,7.6-7.1,12.6,4.3,5.9,7.7,7.5,7,2.6,9.8,5,6.6,7.9,4.8,11.1Z" transform="translate(-315.2 -0.9)" fill="url(#an)"/><path d="M416.4,359.4c-.1-11.8-.6-24.7,3.1-36,2.5-7.4,8-17.4,3.9-25.1-.2-.3-2.2-1.9-2.5-1.7l-4.4,4.1h0c2.9,8.3-7.8,13.4-13.9,15.8S387.2,322.8,388,331c.4,4.1,4,6.9,7.2,8.9,5.4,3.4,18.9,7,15.4,16-.1.3,1.9,1.6,2.2,1.7l3.4,1.8c.4.1-1.2-1.2-1.5-1.4l-3.9-2.1,2.2,1.8c2-5.1-3.4-10.4-7.2-13.1A40,40,0,0,0,399,341c-4.1-1.7-8.5-4-8.6-8.9a10.2,10.2,0,0,1,2-5.8c5.3-7.6,16-7.6,22.6-13.6a14.2,14.2,0,0,0,4-5.1c.6-1.7-.1-3.1.2-4.6s2.7-3.3,4.2-4.6l-2.4-1.7c4.3,7.9-1.9,18.5-4.3,26.2-3.4,10.9-2.8,23.5-2.7,34.8C414,358.5,416.4,359.1,416.4,359.4Z" transform="translate(-315.2 -0.9)"/><path d="M916,396.9l22.9-.9c2.6-.1,5.5-.1,7.2,1.8s1.3,5.8.4,8.8-2.2,6.4-5,7.9a12.6,12.6,0,0,1-4.8,1.2l-19.8,1.9a24.8,24.8,0,0,1-1.8-21.1l1.6.9" transform="translate(-315.2 -0.9)" fill="url(#ao)"/><path d="M917.3,397.7l19-.8c2.1-.1,5.8-.9,7.7,0s2.2,5.5,1.5,8.1c-1.5,5.2-3.5,8.9-9.2,9.7s-13.7,1.4-20.6,2.1l2.5,1.5a25,25,0,0,1-1.8-21l-1-.4,1.2.6c1.5.8,1.7.6.2-.3l-1.9-1c-.1,0-1-.5-1.1-.4a25.6,25.6,0,0,0,1.9,21.1c.3.4,1.9,1.6,2.4,1.5L933,417c4-.4,9,0,11.8-3.3s5.8-11.3,2.5-15.2a11.2,11.2,0,0,0-5.7-3.2c-3.6-.7-7.8,0-11.5.2l-15.3.6c.4,0,1.7,1.6,2.5,1.6Z" transform="translate(-315.2 -0.9)"/><path d="M448.5,29.1a171.8,171.8,0,0,1,28.7.8,22.5,22.5,0,0,0-1.5,12.3c.3,1.3.6,2.8-.2,4s-2.5,1.4-4,1.4l-14.9.7a12.6,12.6,0,0,1-3.9-.2,5.3,5.3,0,0,1-3.3-1.9c-1-1.5-.9-3.5-.7-5.3l.5-5.1a18.5,18.5,0,0,0,.1-2.3,9.3,9.3,0,0,0-1.1-4.4" transform="translate(-315.2 -0.9)" fill="url(#ap)"/><path d="M449.9,29.7a182.2,182.2,0,0,1,28.6.7l-2.7-1.1a25.9,25.9,0,0,0-1.7,7.8c0,2.1.7,4.3.6,6.4-.5,5-9.2,3.6-12.8,3.8s-4.9.4-7.2.3-4.7-1.1-4.8-4.6,1.6-8.9-.3-13.5c-.2-.7-2.6-.5-2.8-.9,1.5,3.4,1,6.3.7,10-.2,2.2-.8,4.9.6,6.9s3.8,2.9,5.8,3.4,6.5,0,9.5-.1,7.2.2,10.6-.5,3.3-2.5,3.1-5.4a25.4,25.4,0,0,1,1.5-12.5c.1-.3-2.4-1.1-2.7-1.1a183.5,183.5,0,0,0-28.7-.7c.4,0,1.8,1.1,2.7,1.1Z" transform="translate(-315.2 -0.9)"/><path d="M731.1,506.5a15.7,15.7,0,0,0-6.8.4c-2.1.8-4,2.9-3.7,5.2s4.9,4.6,8.4,4.7a16.4,16.4,0,0,0,7.3-1c2.2-1.1,4-3.5,3.6-5.9s-3.6-4.2-5.6-2.7" transform="translate(-315.2 -0.9)" fill="url(#aq)"/><path d="M729.9,505.7c-3-.2-6.6-.5-9,1.8a4.3,4.3,0,0,0-.4,6.2c2.2,2.5,6,3.7,9.2,3.9s14.7-1.8,10.9-8.3c-1.3-2.3-5.1-4.2-7.5-2.9.2-.1,1.9,1.9,2.5,1.6,2.3-1.2,3.4,1.3,2.8,3.1a5.6,5.6,0,0,1-2.5,3.3c-2.6,1.8-6.1,1.8-9.1,1.5s-6.3-2.3-4.3-5.7,6.5-3.2,9.9-2.9c-.5,0-1.6-1.5-2.5-1.6Z" transform="translate(-315.2 -0.9)"/><path d="M565.9,494.1a6.6,6.6,0,0,0-4.6.3c-1.5.9-2.7,3.3-2.4,6s3.4,5.3,5.8,5.5a7.1,7.1,0,0,0,4.9-1,7.9,7.9,0,0,0,2.4-6.7c-.3-2.9-2.6-4.9-3.9-3.2" transform="translate(-315.2 -0.9)" fill="url(#ar)"/><path d="M564.7,493.3c-2.5-.4-4.8-.4-6.2,2a7.3,7.3,0,0,0-.1,7c1.4,2.3,4.7,4,7.3,4.4s4.4,0,5.8-1.7a7.8,7.8,0,0,0,1.4-7.5c-.7-1.8-4.2-5.2-6-3.3-.1,0,2.2,1.9,2.5,1.6a.9.9,0,0,1,.8-.5c.6-.1.5-.3-.4-.5s.7,1.4.8,2.2a7.9,7.9,0,0,1-.4,4.3c-1.1,3-3.6,4.1-6.7,3.8a2.8,2.8,0,0,1-2.6-1.3,7.8,7.8,0,0,1-.6-5.2c.9-3.4,3.5-4.3,6.9-3.7-.5-.1-1.6-1.4-2.5-1.6Z" transform="translate(-315.2 -0.9)"/><path d="M853.6,489.4a8.1,8.1,0,0,0-5.1-.2,4.4,4.4,0,0,0-3.1,3.7,4.5,4.5,0,0,0,3.4,4.2,9.6,9.6,0,0,0,5.8-.3c1.2-.4,2.7-1.1,2.6-2.4s-1.6-2-2.8-2.8a6.5,6.5,0,0,1-1.6-1.7" transform="translate(-315.2 -0.9)" fill="url(#as)"/><path d="M852.5,488.7c-3-.9-8.2-.9-8.4,3.4-.1,2.6,2.6,4.3,4.7,5.3s7,1.3,9.1-.9-2.8-4.4-3.8-5.9-2.3-1.1-2.6-1.4a7.2,7.2,0,0,0,2,1.9,15.9,15.9,0,0,1,2.1,1.5c1.6,2.3-2.1,3.5-3.6,3.8s-3.5.7-4.6-.4a3.6,3.6,0,0,1-.4-3.6c1.3-3,5-3,7.7-2.2.5.1-.3-.4-.4-.5a6.4,6.4,0,0,0-1.8-1Z" transform="translate(-315.2 -0.9)"/><path d="M993.1,336.7c3.7-1.2,7.6-2.4,11.6-2.3s8,1.8,10,5.2,1.5,7.9.8,11.8l-2.2,13.5c-1.3,7.7-2.6,15.4-4.1,23.1a26.1,26.1,0,0,1-20.3,1.4c-1.8-.6-3.7-1.5-4.6-3.2s-.3-4.3,1.6-4.8Z" transform="translate(-315.2 -0.9)" fill="url(#at)"/><path d="M994.3,337.5c4.5-1.4,9.4-3,14.2-2s6.7,7,6.2,12.1c-1,9.3-3,18.7-4.6,28-.4,2.6-.9,5.1-1.3,7.6s-.5,4-3.7,5.2a25.7,25.7,0,0,1-12.6,1.2c-1.9-.2-5.9-.7-7-2.6s.7-3.1,1.6-4.7a7.7,7.7,0,0,0,.2-1.5c1-3.1,1.1-6.8,1.6-10s1.6-9.5,2.3-14.3,2.1-12.7,3.1-19c.1-.6-2.5-1.5-2.5-1.6l-3,18.8-2.4,14.8c-.5,3.1-.5,6.7-1.5,9.7s-3.5,4.3-.7,7.5,7.9,4.6,12.1,5a26,26,0,0,0,9.6-1,10.6,10.6,0,0,0,3-1c1.8-1.1,1,0,1.8-2.6a42.9,42.9,0,0,0,1.5-7.8c1.7-9.5,3.5-19,4.8-28.5.9-6.3-.2-11.3-5.7-14.7s-12.8-2.4-19.5-.2C992.2,335.7,993.6,337.8,994.3,337.5Z" transform="translate(-315.2 -0.9)"/><path d="M1016.6,349.9a10.8,10.8,0,0,1,9.5,5.1,14.1,14.1,0,0,1,1.8,10.8c-1.5,6.3-6.9,11.2-13.1,13a3.3,3.3,0,0,1-2.6-.1,3.1,3.1,0,0,1-1.1-2.7,47.5,47.5,0,0,1,6.1-26.6" transform="translate(-315.2 -0.9)" fill="url(#au)"/><path d="M1017.8,350.7c7.9.3,10.7,8.9,8.5,15.5a18.4,18.4,0,0,1-8.9,10.1c-2.6,1.5-4.6,2.4-5.2-1.2a29.3,29.3,0,0,1,.5-7.8,46.9,46.9,0,0,1,5.8-17.1c.1-.3-2.5-1.8-2.5-1.7a50.3,50.3,0,0,0-5.4,14.6c-.7,3.6-1.9,9.5-.6,13.1s6.9,3.6,10.4,1.5c7.2-4.1,11.7-13.5,7.3-21.2a15.3,15.3,0,0,0-12.2-7.5c.3,0,1.5,1.7,2.3,1.7Z" transform="translate(-315.2 -0.9)"/><path d="M991.2,338a157,157,0,0,0-38.7,4.6c-5.9,1.5-11.8,3.4-16.4,7.1a16.3,16.3,0,0,0-5.4,7.1,10.2,10.2,0,0,0,.7,8.7l1.5.8c5.4,7.8,14.7,12.4,24,14.2s19.1,1.2,28.6.5l.6,1.5a18.2,18.2,0,0,0,10.8-17.4,9.9,9.9,0,0,0,1.7-7.5,28.5,28.5,0,0,0-2.4-7.5L991,338.3Z" transform="translate(-315.2 -0.9)" fill="url(#av)"/><path d="M989.9,337.3c-14.3,0-29,1.6-42.7,5.7-6.2,1.8-13,4.7-16.5,10.4-2,3.2-3.3,9.1,0,11.9.2.2.7.3,1,.5l.8,1a55,55,0,0,0,5.4,5.4,45.6,45.6,0,0,0,9.5,5.6c12.4,5.6,26.1,4.8,39.3,4l-2.5-1.5.6,1.5c.1.4,2.2,1.6,2.6,1.4a18.2,18.2,0,0,0,8.8-8.3,17.8,17.8,0,0,0,1.8-5.5,28.3,28.3,0,0,1,.2-2.9c.3-1.2,1-2.1,1.4-3.4,1.4-4.2-.5-8.5-2.1-12.3l-2.6-5.9c-.5-1.2-2.9-5.1-2.4-6.2s-2.6-1.6-2.7-1.4c-.8,1.7,3.1,7.7,4,9.6,1.9,4.5,4.8,9.7,3.2,14.7-.3,1-1.2,1.9-1.5,2.8a28,28,0,0,0,0,2.9,17.4,17.4,0,0,1-1.6,5.5,18.5,18.5,0,0,1-9.1,9l2.6,1.4-.6-1.4a4.9,4.9,0,0,0-2.6-1.5c-11.8.8-24.2,1.7-35.5-2.5a29.6,29.6,0,0,1-13.1-9.1,14.2,14.2,0,0,0-2-2.2c-.4-.3-1.4-.5-1.7-.9s-.5-5.7-.1-7.3c2.8-9.9,15.1-13.3,23.8-15.4a157.4,157.4,0,0,1,36.8-4.2C992,338.7,990.7,337.3,989.9,337.3Z" transform="translate(-315.2 -0.9)"/><path d="M645.5,379.5c-4.4,2.5-11.2,2.5-16.9,2.3s-7.5,1.5-7.1,5.7c.1.6,0,3.2,0,3.8.6,5.8,4.4,11.4,5,17.2s.9,13.9-.3,19.4a5.3,5.3,0,0,0,4.8,6.3l12-.9Z" transform="translate(-315.2 -0.9)" fill="url(#aw)"/><path d="M644.2,378.8c-4.7,2.3-10.1,2.4-15.3,2.3-2.6-.1-6.1-.4-7.9,2.1s-.9,5.2-.7,7.3c.4,4.4,2.6,8.4,3.9,12.5s1.5,8.5,1.6,12.8-1.2,8.5-.9,12.5,3.2,5.7,5.9,6.6,8.5.1,11.6-.5,1.7-.5,1.9-3.1c.4-9.2.9-18.3,1.3-27.5l1.2-23.6c0-.6-2.6-1.2-2.6-1.4-.7,14.6-1.3,29.2-2,43.9-.1,2.5.4,6-.3,8.4s-1.1,1.4-3.8,1.5-4.2.5-6.3.5a11.5,11.5,0,0,1-1.9.1c-3-.5-2.5-3.4-2.2-5.7.9-7,1.2-15.2-.8-22.1-1.3-4.4-3.7-8.6-4.1-13.3-.2-2.2-.6-5.9,1-7.7s7.5-1.7,10.9-1.7,8.3-.6,12.1-2.5C646.5,380.4,644.8,378.4,644.2,378.8Z" transform="translate(-315.2 -0.9)"/><path d="M818.2,422.8a58.4,58.4,0,0,0,3.3-20.3c0-9-.6-15.8-1-25a21,21,0,0,0-6.5-14.3c-5.5-6.2-15-6.2-23.3-5.6-37.6,2.7-54.2-8.1-122.3,15.4,0,0-25.9,3.5-29.4,11.6-2.1,5-2.3,10.5-1.7,15.8a129,129,0,0,0,8.4,34.1c25.7.2,37.1,4.8,62.8,5,31,.2,77.8-4.8,107-15Z" transform="translate(-315.2 -0.9)" fill="url(#ax)"/><path d="M819.5,423.6c4.4-13.6,3.2-27.4,2.5-41.5-.5-9.5-3.7-17.7-12.5-22.5s-17.3-2.8-26-2.4-14.5,0-21.8-.2c-15.5-.6-30.8-.4-46.1,2.2a256,256,0,0,0-34.3,8.4c-4.8,1.5-9.7,3.5-14.6,4.7-2.8.6-5.7.9-8.5,1.6-8.2,1.8-19.2,4.1-21.6,13.3-1.9,7.6-.4,15.9,1.1,23.4a132.7,132.7,0,0,0,6.7,23.1,5.1,5.1,0,0,0,2.5,1.6c15.4.1,30.4,2.8,45.7,4.2a278,278,0,0,0,42.8.1,416.5,416.5,0,0,0,45.9-5.5c7.5-1.3,14.9-2.8,22.3-4.7,5.5-1.4,11-2.8,15.9-5.8-.2.1-2.1-1.9-2.6-1.6-4.6,2.9-10.4,4.1-15.7,5.5-6.8,1.8-13.8,3.3-20.8,4.6a391.3,391.3,0,0,1-45.9,5.6,278.9,278.9,0,0,1-45.7,0c-14.9-1.4-29.4-3.9-44.3-4l2.4,1.5c-4.8-12.6-9.4-27.5-8.5-41.1.3-4.4,1.1-9.1,4.7-11.9a31.5,31.5,0,0,1,9.6-4.6c5.5-1.8,11.2-2.4,16.8-3.8,10.8-2.6,21.3-6.9,32.2-9.6a199.8,199.8,0,0,1,49.3-6c13.3.1,26.6,1.1,39.9.3,5.3-.4,11.2-1,16.4.7,8.4,2.8,11.6,11.5,12,19.5.9,14.6,2.2,29.2-2.4,43.3C816.8,422.4,819.5,423.6,819.5,423.6Z" transform="translate(-315.2 -0.9)"/><path d="M598.3,611.2c.6,3.1,1.7,8.7,3.2,9.3s7.3.6,8-1-.7-1.4-1.2-3.1-4.9-22.4-2.8-23.9C605,592,592.5,584.5,598.3,611.2Z" transform="translate(-315.2 -0.9)" fill="url(#ay)"/><path d="M596.9,610.5c.8,3.7,1.1,8.5,4.9,10.3,2.2,1.1,9.4,1.9,9-1.8-.1-.7-1.2-1.8-1.5-2.7a11.1,11.1,0,0,1-.5-2.5c-.6-2.6-1.1-5.1-1.5-7.7s-2.7-10.4-.5-12.8l-.3-.3c-1.7-1.4-4.4-2.9-6.7-2.6-7.5,1-3.7,16-2.9,20.1.2.8,2.6,1,2.7,1.4-1-4.5-4.1-15.5.7-19.1,1.3-1,2.4-.6,3.9-.6s-.9.8-.2-.1c-.5.7-.3,2.2-.3,3.1a82.5,82.5,0,0,0,2.9,19.1c.7,2.3,3,4.6-.4,5.6a15.2,15.2,0,0,1-4.3.2c-1.6-.4-.2-.2-.1,0-1.3-2.4-1.7-5.6-2.2-8.2C599.4,611.1,597,610.9,596.9,610.5Z" transform="translate(-315.2 -0.9)"/><path d="M621,585.9c-8.4-3.9-7.8-4.2-11.5-3.4s-6.4,3-7,6,2.2,14,3,17c2.6,9.6,3,12,4,17s1,11,18,7Z" transform="translate(-315.2 -0.9)" fill="url(#az)"/><path d="M620.4,585.4c-3.2-1.5-7.1-4.3-10.8-3.9s-6.7,2.1-8,5-.2,5.5.2,7.9c1.2,6.4,3.1,12.7,4.7,19,1,4.1,1.4,8.5,3,12.5,2.7,6.9,11.5,6.6,17.5,4.8,2.3-.7,1.4,0,1.6-1.5a22.2,22.2,0,0,0-.7-4.5c-.6-4.6-1.3-9.2-2-13.8l-3.6-24.2c-.1-.8-2.5-1.1-2.6-1.5,1.9,12.9,3.9,25.7,5.8,38.6.1.9,1.2,4.1.7,4.9s-7.8,1.4-9.1,1.4-3.7,0-4.8-1.9-1.9-6.8-2.5-9.8c-1.1-5.2-2.6-10.2-3.8-15.4s-3.9-11.4-1.4-15.6c1.4-2.5,5.1-4.5,8.1-4.5s6.2,2.3,8.9,3.5S620.9,585.6,620.4,585.4Z" transform="translate(-315.2 -0.9)"/><path d="M623.5,583.5c76-23,130-19,192.2-7a10.6,10.6,0,0,1,8.5,7.9c1.2,5.7,1.6,9.5,2.3,15.1,1.3,10.1,1,21,0,32-.7,8-21,5.4-31.3,7.2-50.3,8.7-99.1,9.3-148.7-2.2-5.4-1.2-22.2-2.2-22-8,1-24-12.9-22.3-6-42Z" transform="translate(-315.2 -0.9)" fill="url(#ba)"/><path d="M624.8,584.2c35.4-10.6,71.8-16.9,108.8-16.5a380.7,380.7,0,0,1,48.9,3.9c8.2,1.1,16.2,2.4,24.3,3.9,4.5.8,11.2,1,14.5,4.4s2.9,10.4,3.4,14.5a152,152,0,0,1,1.1,29.4c-.2,2.8.3,7-1.6,9.3s-4.3,2.4-6.6,2.9c-6.2,1.2-12.7.8-19,1.3-9,.6-17.9,2.7-26.8,3.8-41.2,5.2-83,4.3-123.6-4.8-6.3-1.4-13.6-1.3-19.5-3.9s-2.7-7.1-3.2-11.3a35,35,0,0,0-2.2-8.6c-1.9-4.9-5.1-9.3-5.4-14.6-.2-3,.2-7.5,1.7-10s3.5-2.7,5.2-3.7c-.2.1-2-1.8-2.6-1.4s-4,1.7-5,3-2,7.5-1.9,10.1c.1,4.8,2.6,8.8,4.6,13a38.3,38.3,0,0,1,2.8,9.3c.6,3.1-.5,8,.8,10.8s5,4.2,7.5,5c5.7,2,11.8,2.3,17.6,3.5,11.4,2.5,22.8,4.6,34.3,6a353.3,353.3,0,0,0,67.4,1.6c20.1-1.3,39.8-5.7,59.8-6.5,4.6-.2,14,.4,16.9-4.2s1.3-9,1.5-12.7a132.6,132.6,0,0,0-.4-17.8c-.4-4.7-1-9.5-1.8-14.3s-1.3-7.4-4.5-10.2-9.1-4.1-14.3-5a524.6,524.6,0,0,0-54.3-7.4c-44.5-3.3-88.4,2.9-131,15.8C622.7,582.6,624,584.5,624.8,584.2Z" transform="translate(-315.2 -0.9)"/><path d="M762.5,435.9c.5,0,27-38.4-3-78.4h20c23,44,1,73,0,76S762.5,435.9,762.5,435.9Z" transform="translate(-315.2 -0.9)" fill="url(#bb)"/><path d="M763.8,436.7c3.1-2,5.2-9.1,6.4-12.3a67.8,67.8,0,0,0,4.5-31.5,67,67,0,0,0-4.5-18,81.6,81.6,0,0,0-5.2-10.2l-3.2-4.8c-2.3-3.5-1.3-.9-.4-1.5s3.5,0,4.4,0h14.9l-2.4-1.8c10.4,20.3,14.3,43.5,5.5,65-1.3,3.2-3,8.3-5.4,10.9s-5.8,1.7-8.2,1.9-5.9.6-8.9.7c.4,0,1.6,1.6,2.4,1.6,4.4-.1,13.6,1.2,16.9-2.2s4.4-8.2,5.7-11.6c8.5-21.4,4.6-44.4-5.6-64.5-.3-.5-1.7-1.8-2.4-1.8h-20c11.7,16,16.9,35.3,12.8,54.8a73.5,73.5,0,0,1-5.8,16.9c-.9,1.8-2.2,5.6-4,6.8C761.4,435,763.3,437.1,763.8,436.7Z" transform="translate(-315.2 -0.9)"/><path d="M765.2,569a50,50,0,0,1,13.3,18.5c7,16,7,40-4,54l-20,2c17-9.3,14.8-29.4,8-52-2.8-9.1-8.9-21.3-18-24Z" transform="translate(-315.2 -0.9)" fill="url(#bc)"/><path d="M764,568.4c15.9,14.2,21.7,37.8,16.1,58.2a41.6,41.6,0,0,1-5.7,12.5c-1.5,2.2-3.4,1.8-6,2.1l-15.1,1.5,2.5,1.6c16.1-9.3,14-28.5,10.1-44.2-3.2-12.9-8.6-28.5-22.4-33.4l2.2,1.6,20.7,1.5c-.4-.1-1.6-1.5-2.4-1.6l-20.7-1.5c.2,0,1.7,1.4,2.2,1.6,7.9,2.7,12.4,12.7,15,20a110.1,110.1,0,0,1,5.3,22.7c1.6,12.6-.8,24.9-12.6,31.7.1-.1,2,1.7,2.5,1.6l15.9-1.6c2.4-.2,3.4,0,5-1.5,3.4-3.3,5.3-10,6.4-14.4,5-20.3-1-43.2-16.7-57.2A8.4,8.4,0,0,0,764,568.4Z" transform="translate(-315.2 -0.9)"/><path d="M755.8,386.6c-13.5,10.7-40.3,30.1-40.3,30.1,2.4-5.3,6.5-18.9,6.5-18.9-13,7.4-38,21-38,21,.6-2.1,8.2-15.1,8.2-15.1-7.6-.9-14.5-1.1-22.1-2l33.4-8.2c-2.7,4-4.2,5.5-6.9,9.6l40.9-13.7c-3,4.9-7.5,10.5-10.5,15.4Z" transform="translate(-315.2 -0.9)" fill="#65baf7"/><path d="M743,588.6c-12.8,10.7-38.1,30.1-38.1,30.1,2.3-5.3,6.1-18.9,6.1-18.9-12.2,7.4-35.8,21-35.8,21,.6-2.1,7.7-15.1,7.7-15.1-7.1-.9-13.7-1.1-20.8-2l31.5-8.2c-2.6,4-3.9,5.5-6.5,9.6l38.7-13.7c-2.9,4.9-7.2,10.5-10,15.4Z" transform="translate(-315.2 -0.9)" fill="#65baf7"/><rect width="798.3" height="755.36" fill="none"/></svg>