<svg xmlns="http://www.w3.org/2000/svg" xmlns:xlink="http://www.w3.org/1999/xlink" viewBox="0 0 798.3 755.4"><defs><linearGradient id="a" x1="1038.53" y1="367.73" x2="1002.39" y2="362.88" gradientUnits="userSpaceOnUse"><stop offset="0" stop-color="#fff"/><stop offset="0.96"/></linearGradient><radialGradient id="b" cx="1024.9" cy="353.99" r="33.42" gradientUnits="userSpaceOnUse"><stop offset="0" stop-color="#fff"/><stop offset="0.35" stop-color="#f40005"/><stop offset="0.52" stop-color="#f20005"/><stop offset="0.59" stop-color="#eb0005"/><stop offset="0.63" stop-color="#e00005"/><stop offset="0.67" stop-color="#cf0004"/><stop offset="0.7" stop-color="#b90004"/><stop offset="0.73" stop-color="#9d0003"/><stop offset="0.75" stop-color="#7d0003"/><stop offset="0.77" stop-color="#590002"/><stop offset="0.79" stop-color="#300001"/></radialGradient><linearGradient id="c" x1="964.21" y1="328.65" x2="964.49" y2="376.48" gradientUnits="userSpaceOnUse"><stop offset="0" stop-color="#fff"/><stop offset="1"/></linearGradient></defs><title>starship_tractorbeam00</title><path d="M993.1,336.7c3.7-1.2,7.6-2.4,11.6-2.3s8,1.8,10,5.2,1.5,7.9.8,11.8l-2.2,13.5c-1.3,7.7-2.6,15.4-4.1,23.1a26.1,26.1,0,0,1-20.3,1.4c-1.8-.6-3.7-1.5-4.6-3.2s-.3-4.3,1.6-4.8Z" transform="translate(-315.2 -0.9)" fill="url(#a)"/><path d="M994.3,337.5c4.5-1.4,9.4-3,14.2-2s6.7,7,6.2,12.1c-1,9.3-3,18.7-4.6,28-.4,2.6-.9,5.1-1.3,7.6s-.5,4-3.7,5.2a25.7,25.7,0,0,1-12.6,1.2c-1.9-.2-5.9-.7-7-2.6s.7-3.1,1.6-4.7a7.7,7.7,0,0,0,.2-1.5c1-3.1,1.1-6.8,1.6-10s1.6-9.5,2.3-14.3,2.1-12.7,3.1-19c.1-.6-2.5-1.5-2.5-1.6l-3,18.8-2.4,14.8c-.5,3.1-.5,6.7-1.5,9.7s-3.5,4.3-.7,7.5,7.9,4.6,12.1,5a26,26,0,0,0,9.6-1,10.6,10.6,0,0,0,3-1c1.8-1.1,1,0,1.8-2.6a42.9,42.9,0,0,0,1.5-7.8c1.7-9.5,3.5-19,4.8-28.5.9-6.3-.2-11.3-5.7-14.7s-12.8-2.4-19.5-.2C992.2,335.7,993.6,337.8,994.3,337.5Z" transform="translate(-315.2 -0.9)"/><path d="M1016.6,349.9a10.8,10.8,0,0,1,9.5,5.1,14.1,14.1,0,0,1,1.8,10.8c-1.5,6.3-6.9,11.2-13.1,13a3.3,3.3,0,0,1-2.6-.1,3.1,3.1,0,0,1-1.1-2.7,47.5,47.5,0,0,1,6.1-26.6" transform="translate(-315.2 -0.9)" fill="url(#b)"/><path d="M1017.8,350.7c7.9.3,10.7,8.9,8.5,15.5a18.4,18.4,0,0,1-8.9,10.1c-2.6,1.5-4.6,2.4-5.2-1.2a29.3,29.3,0,0,1,.5-7.8,46.9,46.9,0,0,1,5.8-17.1c.1-.3-2.5-1.8-2.5-1.7a50.3,50.3,0,0,0-5.4,14.6c-.7,3.6-1.9,9.5-.6,13.1s6.9,3.6,10.4,1.5c7.2-4.1,11.7-13.5,7.3-21.2a15.3,15.3,0,0,0-12.2-7.5c.3,0,1.5,1.7,2.3,1.7Z" transform="translate(-315.2 -0.9)"/><path d="M991.2,338a157,157,0,0,0-38.7,4.6c-5.9,1.5-11.8,3.4-16.4,7.1a16.3,16.3,0,0,0-5.4,7.1,10.2,10.2,0,0,0,.7,8.7l1.5.8c5.4,7.8,14.7,12.4,24,14.2s19.1,1.2,28.6.5l.6,1.5a18.2,18.2,0,0,0,10.8-17.4,9.9,9.9,0,0,0,1.7-7.5,28.5,28.5,0,0,0-2.4-7.5L991,338.3Z" transform="translate(-315.2 -0.9)" fill="url(#c)"/><path d="M989.9,337.3c-14.3,0-29,1.6-42.7,5.7-6.2,1.8-13,4.7-16.5,10.4-2,3.2-3.3,9.1,0,11.9.2.2.7.3,1,.5l.8,1a55,55,0,0,0,5.4,5.4,45.6,45.6,0,0,0,9.5,5.6c12.4,5.6,26.1,4.8,39.3,4l-2.5-1.5.6,1.5c.1.4,2.2,1.6,2.6,1.4a18.2,18.2,0,0,0,8.8-8.3,17.8,17.8,0,0,0,1.8-5.5,28.3,28.3,0,0,1,.2-2.9c.3-1.2,1-2.1,1.4-3.4,1.4-4.2-.5-8.5-2.1-12.3l-2.6-5.9c-.5-1.2-2.9-5.1-2.4-6.2s-2.6-1.6-2.7-1.4c-.8,1.7,3.1,7.7,4,9.6,1.9,4.5,4.8,9.7,3.2,14.7-.3,1-1.2,1.9-1.5,2.8a28,28,0,0,0,0,2.9,17.4,17.4,0,0,1-1.6,5.5,18.5,18.5,0,0,1-9.1,9l2.6,1.4-.6-1.4a4.9,4.9,0,0,0-2.6-1.5c-11.8.8-24.2,1.7-35.5-2.5a29.6,29.6,0,0,1-13.1-9.1,14.2,14.2,0,0,0-2-2.2c-.4-.3-1.4-.5-1.7-.9s-.5-5.7-.1-7.3c2.8-9.9,15.1-13.3,23.8-15.4a157.4,157.4,0,0,1,36.8-4.2C992,338.7,990.7,337.3,989.9,337.3Z" transform="translate(-315.2 -0.9)"/><rect width="798.3" height="755.36" fill="none"/></svg>