<svg xmlns="http://www.w3.org/2000/svg" xmlns:xlink="http://www.w3.org/1999/xlink" viewBox="0 0 798.3 755.4"><defs><radialGradient id="a" cx="733.73" cy="509.62" r="9.62" gradientUnits="userSpaceOnUse"><stop offset="0" stop-color="#fff"/><stop offset="1" stop-color="#f40005"/></radialGradient><radialGradient id="b" cx="559.66" cy="494.96" r="13.16" gradientUnits="userSpaceOnUse"><stop offset="0" stop-color="#fff"/><stop offset="0.71" stop-color="#f40005"/><stop offset="0.82" stop-color="#f20005"/><stop offset="0.86" stop-color="#eb0005"/><stop offset="0.89" stop-color="#e00005"/><stop offset="0.92" stop-color="#cf0004"/><stop offset="0.94" stop-color="#b90004"/><stop offset="0.96" stop-color="#9d0003"/><stop offset="0.97" stop-color="#7d0003"/><stop offset="0.99" stop-color="#590002"/><stop offset="1" stop-color="#300001"/></radialGradient><radialGradient id="c" cx="850.43" cy="491.41" r="5.17" gradientTransform="translate(0 -218.6) scale(1 1.44)" xlink:href="#a"/></defs><title>starship_sensors00</title><path d="M731.1,506.5a15.7,15.7,0,0,0-6.8.4c-2.1.8-4,2.9-3.7,5.2s4.9,4.6,8.4,4.7a16.4,16.4,0,0,0,7.3-1c2.2-1.1,4-3.5,3.6-5.9s-3.6-4.2-5.6-2.7" transform="translate(-315.2 -0.9)" fill="url(#a)"/><path d="M729.9,505.7c-3-.2-6.6-.5-9,1.8a4.3,4.3,0,0,0-.4,6.2c2.2,2.5,6,3.7,9.2,3.9s14.7-1.8,10.9-8.3c-1.3-2.3-5.1-4.2-7.5-2.9.2-.1,1.9,1.9,2.5,1.6,2.3-1.2,3.4,1.3,2.8,3.1a5.6,5.6,0,0,1-2.5,3.3c-2.6,1.8-6.1,1.8-9.1,1.5s-6.3-2.3-4.3-5.7,6.5-3.2,9.9-2.9c-.5,0-1.6-1.5-2.5-1.6Z" transform="translate(-315.2 -0.9)"/><path d="M565.9,494.1a6.6,6.6,0,0,0-4.6.3c-1.5.9-2.7,3.3-2.4,6s3.4,5.3,5.8,5.5a7.1,7.1,0,0,0,4.9-1,7.9,7.9,0,0,0,2.4-6.7c-.3-2.9-2.6-4.9-3.9-3.2" transform="translate(-315.2 -0.9)" fill="url(#b)"/><path d="M564.7,493.3c-2.5-.4-4.8-.4-6.2,2a7.3,7.3,0,0,0-.1,7c1.4,2.3,4.7,4,7.3,4.4s4.4,0,5.8-1.7a7.8,7.8,0,0,0,1.4-7.5c-.7-1.8-4.2-5.2-6-3.3-.1,0,2.2,1.9,2.5,1.6a.9.9,0,0,1,.8-.5c.6-.1.5-.3-.4-.5s.7,1.4.8,2.2a7.9,7.9,0,0,1-.4,4.3c-1.1,3-3.6,4.1-6.7,3.8a2.8,2.8,0,0,1-2.6-1.3,7.8,7.8,0,0,1-.6-5.2c.9-3.4,3.5-4.3,6.9-3.7-.5-.1-1.6-1.4-2.5-1.6Z" transform="translate(-315.2 -0.9)"/><path d="M853.6,489.4a8.1,8.1,0,0,0-5.1-.2,4.4,4.4,0,0,0-3.1,3.7,4.5,4.5,0,0,0,3.4,4.2,9.6,9.6,0,0,0,5.8-.3c1.2-.4,2.7-1.1,2.6-2.4s-1.6-2-2.8-2.8a6.5,6.5,0,0,1-1.6-1.7" transform="translate(-315.2 -0.9)" fill="url(#c)"/><path d="M852.5,488.7c-3-.9-8.2-.9-8.4,3.4-.1,2.6,2.6,4.3,4.7,5.3s7,1.3,9.1-.9-2.8-4.4-3.8-5.9-2.3-1.1-2.6-1.4a7.2,7.2,0,0,0,2,1.9,15.9,15.9,0,0,1,2.1,1.5c1.6,2.3-2.1,3.5-3.6,3.8s-3.5.7-4.6-.4a3.6,3.6,0,0,1-.4-3.6c1.3-3,5-3,7.7-2.2.5.1-.3-.4-.4-.5a6.4,6.4,0,0,0-1.8-1Z" transform="translate(-315.2 -0.9)"/><rect width="798.3" height="755.36" fill="none"/></svg>