<svg xmlns="http://www.w3.org/2000/svg" xmlns:xlink="http://www.w3.org/1999/xlink" viewBox="0 0 798.3 755.4"><defs><linearGradient id="a" x1="390.54" y1="165.45" x2="558.44" y2="198.07" gradientUnits="userSpaceOnUse"><stop offset="0" stop-color="#fff"/><stop offset="0.79"/></linearGradient><linearGradient id="b" x1="1077.6" y1="266.4" x2="1063.41" y2="331.87" gradientTransform="translate(-26.6 109.9) rotate(-5.8)" gradientUnits="userSpaceOnUse"><stop offset="0" stop-color="#fff"/><stop offset="1"/></linearGradient></defs><title>starship_navicomputer00</title><path d="M418.7,246.6q4.7-28.2,9.4-56.4c2.5-15.3,5-30.6,7.6-45.9l3.8-23.1c.7-4.3,3.8-18.9,4.5-19.2,10.1-4,29.3-.9,36.2,6.1,1.6,1.6-2.6,21.5-3.7,28.2l-5,31.8-12.9,81.1a4.2,4.2,0,0,1-4.4,3.5c-8.1-.6-16.2-1.5-24.4-1.6C417.5,251,418.7,246.6,418.7,246.6Z" transform="translate(-315.2 -0.9)" fill="url(#a)"/><path d="M420,247.3c4.8-29,9.7-58,14.5-87,2.2-13.2,4.1-26.5,6.6-39.7.6-3.8,1.5-7.6,2.4-11.4s.6-5.9,3.3-7c4.3-1.7,9.9-1.4,14.4-1s17.4,2.3,18.1,7.7c.3,3-.6,6.5-1.1,9.5s-1.5,8.7-2.3,13c-4.8,26.7-8.5,53.6-12.8,80.4L459.5,235c-.7,3.8-1.2,7.7-1.9,11.6s-2.6,5.5-7.4,5.1c-7.8-.6-15.6-.9-23.4-1.4-1.7-.1-7.5.2-6.8-3,.1-.4-2.6-1.4-2.6-1.4-.8,3.3,6.3,5.2,8.4,5.6,7.5,1.3,15.5.8,23.1,1.4,2.6.2,6.6,1.4,9,0s2.6-6.8,3.1-9.7c5.4-33.8,10.7-67.7,16.1-101.5,1.5-9.6,4-19.2,4.7-28.9.2-3.4-.2-4.3-2.9-6.2a33,33,0,0,0-8.4-4.2,47.5,47.5,0,0,0-15.8-2.9c-2.8,0-10.2-.3-12.3,2.2s-.9,3.3-1.2,4.5-1.2,5.1-1.7,7.6c-1.2,5.7-2.1,11.5-3.1,17.2q-9.4,57.5-19,114.9C417.3,246.4,420,247.3,420,247.3Z" transform="translate(-315.2 -0.9)"/><path d="M1033.2,304.7c4,.7,5.8,3,5.9,7.6a21.7,21.7,0,0,1-1,6.2l-3.3,10.3a2.3,2.3,0,0,0,2.1,3.1,108.2,108.2,0,0,0,63.6-14.5,2.4,2.4,0,0,0,0-4.2c-9-5.4-18.4-9.9-27.1-11.6-12.8-2.5-28.9-3.8-39.3-.6Z" transform="translate(-315.2 -0.9)" fill="url(#b)"/><path d="M1034.4,305.6c5.8,1.3,3,10.1,1.8,14.2-.8,2.4-3.2,6.6-2.7,9.3s4.8,3.8,7.1,3.9a101.4,101.4,0,0,0,22.7-1.1,107.5,107.5,0,0,0,23.5-6.3c3.2-1.3,17.5-5.9,15.8-10.4s-7.1-5.2-9.5-6.5a77.9,77.9,0,0,0-20.9-8,120.2,120.2,0,0,0-25.4-2.5,62.5,62.5,0,0,0-10.6,1.1c-3.6.8-3.3,1.2-4.2,4.5-.1.6,2.5,1.7,2.4,1.8.8-2.9.5-3.7,3.5-4.4a62.6,62.6,0,0,1,13.6-1.2,104.2,104.2,0,0,1,26.1,3.2,79.7,79.7,0,0,1,14.3,5.5c2,1,6.4,2.4,7.8,4.3s-.2,3.3-2,4.4c-7.5,4.7-16.4,7.9-24.9,10.2a108.6,108.6,0,0,1-28.4,3.8c-1.9,0-5.1.5-6.9-.2s-1.4.4-1.4-1.9,1.4-4.3,2-6.1c2.4-7.9,3.9-17.1-6-19.4C1032.5,303.9,1033.5,305.4,1034.4,305.6Z" transform="translate(-315.2 -0.9)"/><rect width="798.3" height="755.36" fill="none"/></svg>