<svg xmlns="http://www.w3.org/2000/svg" xmlns:xlink="http://www.w3.org/1999/xlink" viewBox="0 0 798.3 755.4"><defs><linearGradient id="a" x1="634.01" y1="347.01" x2="633.01" y2="414.51" gradientUnits="userSpaceOnUse"><stop offset="0" stop-color="#fff"/><stop offset="1"/></linearGradient><linearGradient id="b" x1="727.99" y1="376.02" x2="732.35" y2="438.93" gradientUnits="userSpaceOnUse"><stop offset="0" stop-color="#99aac2"/><stop offset="0.17" stop-color="#94a6be"/><stop offset="0.37" stop-color="#879ab4"/><stop offset="0.57" stop-color="#7086a3"/><stop offset="0.79" stop-color="#506a8c"/><stop offset="0.99" stop-color="#2b4970"/></linearGradient><linearGradient id="c" x1="570.75" y1="605.33" x2="603.56" y2="606.04" xlink:href="#a"/><linearGradient id="d" x1="575.28" y1="605.87" x2="627.43" y2="606.75" xlink:href="#a"/><linearGradient id="e" x1="716.23" y1="554.05" x2="729.3" y2="663.27" gradientUnits="userSpaceOnUse"><stop offset="0" stop-color="#fff"/><stop offset="0.9"/></linearGradient><linearGradient id="f" x1="774.17" y1="336.42" x2="775.67" y2="446.92" xlink:href="#a"/><linearGradient id="g" x1="749.37" y1="557.45" x2="767.64" y2="618.65" xlink:href="#a"/></defs><title>starship_engines00</title><path d="M645.5,379.5c-4.4,2.5-11.2,2.5-16.9,2.3s-7.5,1.5-7.1,5.7c.1.6,0,3.2,0,3.8.6,5.8,4.4,11.4,5,17.2s.9,13.9-.3,19.4a5.3,5.3,0,0,0,4.8,6.3l12-.9Z" transform="translate(-315.2 -0.9)" fill="url(#a)"/><path d="M644.2,378.8c-4.7,2.3-10.1,2.4-15.3,2.3-2.6-.1-6.1-.4-7.9,2.1s-.9,5.2-.7,7.3c.4,4.4,2.6,8.4,3.9,12.5s1.5,8.5,1.6,12.8-1.2,8.5-.9,12.5,3.2,5.7,5.9,6.6,8.5.1,11.6-.5,1.7-.5,1.9-3.1c.4-9.2.9-18.3,1.3-27.5l1.2-23.6c0-.6-2.6-1.2-2.6-1.4-.7,14.6-1.3,29.2-2,43.9-.1,2.5.4,6-.3,8.4s-1.1,1.4-3.8,1.5-4.2.5-6.3.5a11.5,11.5,0,0,1-1.9.1c-3-.5-2.5-3.4-2.2-5.7.9-7,1.2-15.2-.8-22.1-1.3-4.4-3.7-8.6-4.1-13.3-.2-2.2-.6-5.9,1-7.7s7.5-1.7,10.9-1.7,8.3-.6,12.1-2.5C646.5,380.4,644.8,378.4,644.2,378.8Z" transform="translate(-315.2 -0.9)"/><path d="M818.2,422.8a58.4,58.4,0,0,0,3.3-20.3c0-9-.6-15.8-1-25a21,21,0,0,0-6.5-14.3c-5.5-6.2-15-6.2-23.3-5.6-37.6,2.7-54.2-8.1-122.3,15.4,0,0-25.9,3.5-29.4,11.6-2.1,5-2.3,10.5-1.7,15.8a129,129,0,0,0,8.4,34.1c25.7.2,37.1,4.8,62.8,5,31,.2,77.8-4.8,107-15Z" transform="translate(-315.2 -0.9)" fill="url(#b)"/><path d="M819.5,423.6c4.4-13.6,3.2-27.4,2.5-41.5-.5-9.5-3.7-17.7-12.5-22.5s-17.3-2.8-26-2.4-14.5,0-21.8-.2c-15.5-.6-30.8-.4-46.1,2.2a256,256,0,0,0-34.3,8.4c-4.8,1.5-9.7,3.5-14.6,4.7-2.8.6-5.7.9-8.5,1.6-8.2,1.8-19.2,4.1-21.6,13.3-1.9,7.6-.4,15.9,1.1,23.4a132.7,132.7,0,0,0,6.7,23.1,5.1,5.1,0,0,0,2.5,1.6c15.4.1,30.4,2.8,45.7,4.2a278,278,0,0,0,42.8.1,416.5,416.5,0,0,0,45.9-5.5c7.5-1.3,14.9-2.8,22.3-4.7,5.5-1.4,11-2.8,15.9-5.8-.2.1-2.1-1.9-2.6-1.6-4.6,2.9-10.4,4.1-15.7,5.5-6.8,1.8-13.8,3.3-20.8,4.6a391.3,391.3,0,0,1-45.9,5.6,278.9,278.9,0,0,1-45.7,0c-14.9-1.4-29.4-3.9-44.3-4l2.4,1.5c-4.8-12.6-9.4-27.5-8.5-41.1.3-4.4,1.1-9.1,4.7-11.9a31.5,31.5,0,0,1,9.6-4.6c5.5-1.8,11.2-2.4,16.8-3.8,10.8-2.6,21.3-6.9,32.2-9.6a199.8,199.8,0,0,1,49.3-6c13.3.1,26.6,1.1,39.9.3,5.3-.4,11.2-1,16.4.7,8.4,2.8,11.6,11.5,12,19.5.9,14.6,2.2,29.2-2.4,43.3C816.8,422.4,819.5,423.6,819.5,423.6Z" transform="translate(-315.2 -0.9)"/><path d="M598.3,611.2c.6,3.1,1.7,8.7,3.2,9.3s7.3.6,8-1-.7-1.4-1.2-3.1-4.9-22.4-2.8-23.9C605,592,592.5,584.5,598.3,611.2Z" transform="translate(-315.2 -0.9)" fill="url(#c)"/><path d="M596.9,610.5c.8,3.7,1.1,8.5,4.9,10.3,2.2,1.1,9.4,1.9,9-1.8-.1-.7-1.2-1.8-1.5-2.7a11.1,11.1,0,0,1-.5-2.5c-.6-2.6-1.1-5.1-1.5-7.7s-2.7-10.4-.5-12.8l-.3-.3c-1.7-1.4-4.4-2.9-6.7-2.6-7.5,1-3.7,16-2.9,20.1.2.8,2.6,1,2.7,1.4-1-4.5-4.1-15.5.7-19.1,1.3-1,2.4-.6,3.9-.6s-.9.8-.2-.1c-.5.7-.3,2.2-.3,3.1a82.5,82.5,0,0,0,2.9,19.1c.7,2.3,3,4.6-.4,5.6a15.2,15.2,0,0,1-4.3.2c-1.6-.4-.2-.2-.1,0-1.3-2.4-1.7-5.6-2.2-8.2C599.4,611.1,597,610.9,596.9,610.5Z" transform="translate(-315.2 -0.9)"/><path d="M621,585.9c-8.4-3.9-7.8-4.2-11.5-3.4s-6.4,3-7,6,2.2,14,3,17c2.6,9.6,3,12,4,17s1,11,18,7Z" transform="translate(-315.2 -0.9)" fill="url(#d)"/><path d="M620.4,585.4c-3.2-1.5-7.1-4.3-10.8-3.9s-6.7,2.1-8,5-.2,5.5.2,7.9c1.2,6.4,3.1,12.7,4.7,19,1,4.1,1.4,8.5,3,12.5,2.7,6.9,11.5,6.6,17.5,4.8,2.3-.7,1.4,0,1.6-1.5a22.2,22.2,0,0,0-.7-4.5c-.6-4.6-1.3-9.2-2-13.8l-3.6-24.2c-.1-.8-2.5-1.1-2.6-1.5,1.9,12.9,3.9,25.7,5.8,38.6.1.9,1.2,4.1.7,4.9s-7.8,1.4-9.1,1.4-3.7,0-4.8-1.9-1.9-6.8-2.5-9.8c-1.1-5.2-2.6-10.2-3.8-15.4s-3.9-11.4-1.4-15.6c1.4-2.5,5.1-4.5,8.1-4.5s6.2,2.3,8.9,3.5S620.9,585.6,620.4,585.4Z" transform="translate(-315.2 -0.9)"/><path d="M623.5,583.5c76-23,130-19,192.2-7a10.6,10.6,0,0,1,8.5,7.9c1.2,5.7,1.6,9.5,2.3,15.1,1.3,10.1,1,21,0,32-.7,8-21,5.4-31.3,7.2-50.3,8.7-99.1,9.3-148.7-2.2-5.4-1.2-22.2-2.2-22-8,1-24-12.9-22.3-6-42Z" transform="translate(-315.2 -0.9)" fill="url(#e)"/><path d="M624.8,584.2c35.4-10.6,71.8-16.9,108.8-16.5a380.7,380.7,0,0,1,48.9,3.9c8.2,1.1,16.2,2.4,24.3,3.9,4.5.8,11.2,1,14.5,4.4s2.9,10.4,3.4,14.5a152,152,0,0,1,1.1,29.4c-.2,2.8.3,7-1.6,9.3s-4.3,2.4-6.6,2.9c-6.2,1.2-12.7.8-19,1.3-9,.6-17.9,2.7-26.8,3.8-41.2,5.2-83,4.3-123.6-4.8-6.3-1.4-13.6-1.3-19.5-3.9s-2.7-7.1-3.2-11.3a35,35,0,0,0-2.2-8.6c-1.9-4.9-5.1-9.3-5.4-14.6-.2-3,.2-7.5,1.7-10s3.5-2.7,5.2-3.7c-.2.1-2-1.8-2.6-1.4s-4,1.7-5,3-2,7.5-1.9,10.1c.1,4.8,2.6,8.8,4.6,13a38.3,38.3,0,0,1,2.8,9.3c.6,3.1-.5,8,.8,10.8s5,4.2,7.5,5c5.7,2,11.8,2.3,17.6,3.5,11.4,2.5,22.8,4.6,34.3,6a353.3,353.3,0,0,0,67.4,1.6c20.1-1.3,39.8-5.7,59.8-6.5,4.6-.2,14,.4,16.9-4.2s1.3-9,1.5-12.7a132.6,132.6,0,0,0-.4-17.8c-.4-4.7-1-9.5-1.8-14.3s-1.3-7.4-4.5-10.2-9.1-4.1-14.3-5a524.6,524.6,0,0,0-54.3-7.4c-44.5-3.3-88.4,2.9-131,15.8C622.7,582.6,624,584.5,624.8,584.2Z" transform="translate(-315.2 -0.9)"/><path d="M762.5,435.9c.5,0,27-38.4-3-78.4h20c23,44,1,73,0,76S762.5,435.9,762.5,435.9Z" transform="translate(-315.2 -0.9)" fill="url(#f)"/><path d="M763.8,436.7c3.1-2,5.2-9.1,6.4-12.3a67.8,67.8,0,0,0,4.5-31.5,67,67,0,0,0-4.5-18,81.6,81.6,0,0,0-5.2-10.2l-3.2-4.8c-2.3-3.5-1.3-.9-.4-1.5s3.5,0,4.4,0h14.9l-2.4-1.8c10.4,20.3,14.3,43.5,5.5,65-1.3,3.2-3,8.3-5.4,10.9s-5.8,1.7-8.2,1.9-5.9.6-8.9.7c.4,0,1.6,1.6,2.4,1.6,4.4-.1,13.6,1.2,16.9-2.2s4.4-8.2,5.7-11.6c8.5-21.4,4.6-44.4-5.6-64.5-.3-.5-1.7-1.8-2.4-1.8h-20c11.7,16,16.9,35.3,12.8,54.8a73.5,73.5,0,0,1-5.8,16.9c-.9,1.8-2.2,5.6-4,6.8C761.4,435,763.3,437.1,763.8,436.7Z" transform="translate(-315.2 -0.9)"/><path d="M765.2,569a50,50,0,0,1,13.3,18.5c7,16,7,40-4,54l-20,2c17-9.3,14.8-29.4,8-52-2.8-9.1-8.9-21.3-18-24Z" transform="translate(-315.2 -0.9)" fill="url(#g)"/><path d="M764,568.4c15.9,14.2,21.7,37.8,16.1,58.2a41.6,41.6,0,0,1-5.7,12.5c-1.5,2.2-3.4,1.8-6,2.1l-15.1,1.5,2.5,1.6c16.1-9.3,14-28.5,10.1-44.2-3.2-12.9-8.6-28.5-22.4-33.4l2.2,1.6,20.7,1.5c-.4-.1-1.6-1.5-2.4-1.6l-20.7-1.5c.2,0,1.7,1.4,2.2,1.6,7.9,2.7,12.4,12.7,15,20a110.1,110.1,0,0,1,5.3,22.7c1.6,12.6-.8,24.9-12.6,31.7.1-.1,2,1.7,2.5,1.6l15.9-1.6c2.4-.2,3.4,0,5-1.5,3.4-3.3,5.3-10,6.4-14.4,5-20.3-1-43.2-16.7-57.2A8.4,8.4,0,0,0,764,568.4Z" transform="translate(-315.2 -0.9)"/><path d="M755.8,386.6c-13.5,10.7-40.3,30.1-40.3,30.1,2.4-5.3,6.5-18.9,6.5-18.9-13,7.4-38,21-38,21,.6-2.1,8.2-15.1,8.2-15.1-7.6-.9-14.5-1.1-22.1-2l33.4-8.2c-2.7,4-4.2,5.5-6.9,9.6l40.9-13.7c-3,4.9-7.5,10.5-10.5,15.4Z" transform="translate(-315.2 -0.9)" fill="#65baf7"/><path d="M743,588.6c-12.8,10.7-38.1,30.1-38.1,30.1,2.3-5.3,6.1-18.9,6.1-18.9-12.2,7.4-35.8,21-35.8,21,.6-2.1,7.7-15.1,7.7-15.1-7.1-.9-13.7-1.1-20.8-2l31.5-8.2c-2.6,4-3.9,5.5-6.5,9.6l38.7-13.7c-2.9,4.9-7.2,10.5-10,15.4Z" transform="translate(-315.2 -0.9)" fill="#65baf7"/><rect width="798.3" height="755.36" fill="none"/></svg>