<svg xmlns="http://www.w3.org/2000/svg" xmlns:xlink="http://www.w3.org/1999/xlink" viewBox="0 0 798.3 755.4"><defs><radialGradient id="a" cx="426.77" cy="310.89" r="35.82" gradientUnits="userSpaceOnUse"><stop offset="0" stop-color="#fff"/><stop offset="0.71" stop-color="#f40005"/><stop offset="0.82" stop-color="#f20005"/><stop offset="0.86" stop-color="#eb0005"/><stop offset="0.89" stop-color="#e00005"/><stop offset="0.92" stop-color="#cf0004"/><stop offset="0.94" stop-color="#b90004"/><stop offset="0.96" stop-color="#9d0003"/><stop offset="0.97" stop-color="#7d0003"/><stop offset="0.99" stop-color="#590002"/><stop offset="1" stop-color="#300001"/></radialGradient><radialGradient id="b" cx="930.49" cy="406.77" r="14.21" xlink:href="#a"/><radialGradient id="c" cx="462.71" cy="38.6" r="12.34" xlink:href="#a"/></defs><title>starship_comms00</title><path d="M415.2,358.6a221.2,221.2,0,0,1,1.4-29.2c1.1-9.2,10.4-24.1,5.6-31.9l-4.5,4c2.2,4.7-2.4,9.8-6.8,12.6s-9.7,3.9-14.3,6.5-8.5,7.6-7.1,12.6,4.3,5.9,7.7,7.5,7,2.6,9.8,5,6.6,7.9,4.8,11.1Z" transform="translate(-315.2 -0.9)" fill="url(#a)"/><path d="M416.4,359.4c-.1-11.8-.6-24.7,3.1-36,2.5-7.4,8-17.4,3.9-25.1-.2-.3-2.2-1.9-2.5-1.7l-4.4,4.1h0c2.9,8.3-7.8,13.4-13.9,15.8S387.2,322.8,388,331c.4,4.1,4,6.9,7.2,8.9,5.4,3.4,18.9,7,15.4,16-.1.3,1.9,1.6,2.2,1.7l3.4,1.8c.4.1-1.2-1.2-1.5-1.4l-3.9-2.1,2.2,1.8c2-5.1-3.4-10.4-7.2-13.1A40,40,0,0,0,399,341c-4.1-1.7-8.5-4-8.6-8.9a10.2,10.2,0,0,1,2-5.8c5.3-7.6,16-7.6,22.6-13.6a14.2,14.2,0,0,0,4-5.1c.6-1.7-.1-3.1.2-4.6s2.7-3.3,4.2-4.6l-2.4-1.7c4.3,7.9-1.9,18.5-4.3,26.2-3.4,10.9-2.8,23.5-2.7,34.8C414,358.5,416.4,359.1,416.4,359.4Z" transform="translate(-315.2 -0.9)"/><path d="M916,396.9l22.9-.9c2.6-.1,5.5-.1,7.2,1.8s1.3,5.8.4,8.8-2.2,6.4-5,7.9a12.6,12.6,0,0,1-4.8,1.2l-19.8,1.9a24.8,24.8,0,0,1-1.8-21.1l1.6.9" transform="translate(-315.2 -0.9)" fill="url(#b)"/><path d="M917.3,397.7l19-.8c2.1-.1,5.8-.9,7.7,0s2.2,5.5,1.5,8.1c-1.5,5.2-3.5,8.9-9.2,9.7s-13.7,1.4-20.6,2.1l2.5,1.5a25,25,0,0,1-1.8-21l-1-.4,1.2.6c1.5.8,1.7.6.2-.3l-1.9-1c-.1,0-1-.5-1.1-.4a25.6,25.6,0,0,0,1.9,21.1c.3.4,1.9,1.6,2.4,1.5L933,417c4-.4,9,0,11.8-3.3s5.8-11.3,2.5-15.2a11.2,11.2,0,0,0-5.7-3.2c-3.6-.7-7.8,0-11.5.2l-15.3.6c.4,0,1.7,1.6,2.5,1.6Z" transform="translate(-315.2 -0.9)"/><path d="M448.5,29.1a171.8,171.8,0,0,1,28.7.8,22.5,22.5,0,0,0-1.5,12.3c.3,1.3.6,2.8-.2,4s-2.5,1.4-4,1.4l-14.9.7a12.6,12.6,0,0,1-3.9-.2,5.3,5.3,0,0,1-3.3-1.9c-1-1.5-.9-3.5-.7-5.3l.5-5.1a18.5,18.5,0,0,0,.1-2.3,9.3,9.3,0,0,0-1.1-4.4" transform="translate(-315.2 -0.9)" fill="url(#c)"/><path d="M449.9,29.7a182.2,182.2,0,0,1,28.6.7l-2.7-1.1a25.9,25.9,0,0,0-1.7,7.8c0,2.1.7,4.3.6,6.4-.5,5-9.2,3.6-12.8,3.8s-4.9.4-7.2.3-4.7-1.1-4.8-4.6,1.6-8.9-.3-13.5c-.2-.7-2.6-.5-2.8-.9,1.5,3.4,1,6.3.7,10-.2,2.2-.8,4.9.6,6.9s3.8,2.9,5.8,3.4,6.5,0,9.5-.1,7.2.2,10.6-.5,3.3-2.5,3.1-5.4a25.4,25.4,0,0,1,1.5-12.5c.1-.3-2.4-1.1-2.7-1.1a183.5,183.5,0,0,0-28.7-.7c.4,0,1.8,1.1,2.7,1.1Z" transform="translate(-315.2 -0.9)"/><rect width="798.3" height="755.36" fill="none"/></svg>